<svg xmlns="http://www.w3.org/2000/svg" xmlns:xlink="http://www.w3.org/1999/xlink" viewBox="0 0 19.4 30.11"><defs><style>.cls-1{fill:url(#Безымянный_градиент_14);}.cls-2{fill:#5c629e;}.cls-3{opacity:0.32;}.cls-4{fill:#231f20;}.cls-5{fill:#ebe9ec;}.cls-6{fill:#fff;}</style><linearGradient id="Безымянный_градиент_14" x1="0.83" y1="82.22" x2="19.46" y2="82.22" gradientTransform="matrix(1, 0, 0, -1, 0, 97.23)" gradientUnits="userSpaceOnUse"><stop offset="0" stop-color="#fff"/><stop offset="1" stop-color="#48486a"/></linearGradient></defs><title>Ресурс 8</title><g id="Слой_2" data-name="Слой 2"><g id="Layer_1" data-name="Layer 1"><path class="cls-1" d="M1.3.31.8.61v16.5a6.08,6.08,0,0,0,2.7,4.7L17.6,30l1.1-.5a1.23,1.23,0,0,0,.7-1.1V12.71A6.08,6.08,0,0,0,16.7,8L3.1.21A1.68,1.68,0,0,0,1.3.31Z"/><path class="cls-2" d="M2.7.81C1.2-.09,0,.71,0,2.41v15a6.08,6.08,0,0,0,2.7,4.7l13.2,7.6c1.5.9,2.7.2,2.7-1.6V13a6.08,6.08,0,0,0-2.7-4.7Z"/><g class="cls-3"><path class="cls-4" d="M6.8,10.71l-.2-.1c-.3-.2-.4-.1-.4.1v2.2c0,.4-.1.6-.4.6a1.43,1.43,0,0,1,.4,1v2.3c0,.2.2.5.7.7v1.3l-.6-.3a2.71,2.71,0,0,1-1.5-2.4v-2.2a.85.85,0,0,0-.2-.6L4.1,13v-1.3l.5.3c.2.1.2,0,.2-.3V9.61q0-1.5,1.5-.6l.6.3Z"/><path class="cls-4" d="M11.1,20.21l.2.1c.3.2.4.1.4-.1V18c0-.4.1-.6.4-.6a1.43,1.43,0,0,1-.4-1v-2.3c0-.2-.2-.5-.7-.7v-1.3l.6.3a2.71,2.71,0,0,1,1.5,2.4V17a.85.85,0,0,0,.2.6l.5.3v1.3l-.5-.3c-.2-.1-.2,0-.2.3v2.1q0,1.5-1.5.6l-.6-.3Z"/></g><path class="cls-5" d="M5.3,10.41l-.7.4.1,1.8c0,.4-.1.6-.4.6a1.43,1.43,0,0,1,.4,1v2.3c0,.2.2.5.7.7v1.3l-.7.4a3.79,3.79,0,0,1-1.4-3.1v-2.2a.85.85,0,0,0-.2-.6l-.5-.3v-1.3l.5.3c.2.1.2,0,.2-.3V9.31q0-1.5,1.5-.6l.6.3Z"/><path class="cls-5" d="M9.6,19.81l.2.1c.3.2.4.1.4-.1v-2.2c0-.4.1-.6.4-.6a1.43,1.43,0,0,1-.4-1v-2.3c0-.2-.2-.5-.7-.7l-.7-.9.7-.4.6.3a2.71,2.71,0,0,1,1.5,2.4v2.2a.85.85,0,0,0,.2.6l.5.3v1.3l-.7.4c-.2-.1,0,1.8,0,1.8,0,1-1.4,1.3-1.4,1.3l-.7-1Z"/><polygon class="cls-5" points="1.8 11.91 2.9 11.91 2.9 12.61 2 12.41 1.8 11.91"/><path class="cls-6" d="M4.6,10.71l-.2-.1c-.3-.2-.4-.1-.4.1v2.2c0,.4-.1.6-.4.6a1.43,1.43,0,0,1,.4,1v2.3c0,.2.2.5.7.7v1.3l-.6-.3a2.71,2.71,0,0,1-1.5-2.4v-2.2a.85.85,0,0,0-.2-.6L1.9,13v-1.3l.5.3c.2.1.2,0,.2-.3V9.61q0-1.5,1.5-.6l.6.3Z"/><path class="cls-6" d="M8.9,20.21l.2.1c.3.2.4.1.4-.1V18c0-.4.1-.6.4-.6a1.43,1.43,0,0,1-.4-1v-2.3c0-.2-.2-.5-.7-.7v-1.3l.6.3a2.71,2.71,0,0,1,1.5,2.4V17a.85.85,0,0,0,.2.6l.5.3v1.3l-.5-.3c-.2-.1-.2,0-.2.3v2.1q0,1.5-1.5.6l-.6-.3Z"/></g></g></svg>