<svg xmlns="http://www.w3.org/2000/svg" xmlns:xlink="http://www.w3.org/1999/xlink" viewBox="0 0 20.9 32.56"><defs><style>.cls-1{fill:url(#Безымянный_градиент_7);}.cls-2{fill:url(#Безымянный_градиент_8);}.cls-3{fill:#fff;}</style><linearGradient id="Безымянный_градиент_7" x1="0.8" y1="161.51" x2="20.9" y2="161.51" gradientTransform="matrix(1, 0, 0, -1, 0, 177.75)" gradientUnits="userSpaceOnUse"><stop offset="0" stop-color="#fff"/><stop offset="1" stop-color="#ff9800"/></linearGradient><linearGradient id="Безымянный_градиент_8" x1="-0.09" y1="161.22" x2="20.01" y2="161.22" gradientTransform="matrix(1, 0, 0, -1, 0, 177.75)" gradientUnits="userSpaceOnUse"><stop offset="0" stop-color="#ff9800"/><stop offset="1" stop-color="#ffc107"/></linearGradient></defs><title>Ресурс 10</title><g id="Слой_2" data-name="Слой 2"><g id="Layer_1" data-name="Layer 1"><path class="cls-1" d="M1.3.37.8.77v17.8a6.44,6.44,0,0,0,2.9,5.1L19,32.47l1.2-.6a1.39,1.39,0,0,0,.7-1.2v-17A6.59,6.59,0,0,0,18,8.57L3.3.17A2.06,2.06,0,0,0,1.3.37Z"/><path class="cls-2" d="M2.9.87C1.3,0,0,.77,0,2.57v16.3A6.44,6.44,0,0,0,2.9,24l14.2,8.2c1.6.9,2.9.2,2.9-1.7V14.07A6.59,6.59,0,0,0,17.1,9Z"/><path class="cls-3" d="M5.1,15.87a1.44,1.44,0,0,0,1.5.2l.9,1.2A2.48,2.48,0,0,1,5.2,17a7.4,7.4,0,0,1-2.3-2,4.16,4.16,0,0,1-1-2.4,1.12,1.12,0,0,1,.8-1.4,2.53,2.53,0,0,1,2.1.5A6.84,6.84,0,0,1,7.3,14l-.8.4a4.89,4.89,0,0,0-1.6-1.6,1.52,1.52,0,0,0-1.2-.3c-.3.1-.5.4-.4.9a2,2,0,0,0,.6,1.4A4.26,4.26,0,0,0,5.1,15.87Z"/><path class="cls-3" d="M9.7,18.67l-.1-1.3-1.5-.8-.1-.9,1.5.8-.1-1.3,1.2.7.1,1.3,1.5.8.1.9-1.5-.8.1,1.3Z"/><path class="cls-3" d="M14.6,21.37l-.1-1.3-1.5-.8v-1l1.5.8-.1-1.3,1.2.7.1,1.3,1.5.8.1.9-1.5-.8.1,1.3Z"/></g></g></svg>