<svg xmlns="http://www.w3.org/2000/svg" xmlns:xlink="http://www.w3.org/1999/xlink" viewBox="0 0 20.6 32.11"><defs><style>.cls-1{fill:url(#Безымянный_градиент_17);}.cls-2{fill:#fff;}.cls-3{fill:#5c629e;}</style><linearGradient id="Безымянный_градиент_17" x1="0.83" y1="38.84" x2="20.65" y2="38.84" gradientTransform="matrix(1, 0, 0, -1, 0, 54.85)" gradientUnits="userSpaceOnUse"><stop offset="0" stop-color="#fff"/><stop offset="1" stop-color="#5c629e"/></linearGradient></defs><title>Ресурс 6</title><g id="Слой_2" data-name="Слой 2"><g id="Layer_1" data-name="Layer 1"><path class="cls-1" d="M1.3.42.8.82v17.5a6.41,6.41,0,0,0,2.9,5l15,8.7,1.2-.6a1.39,1.39,0,0,0,.7-1.2V13.42a6.41,6.41,0,0,0-2.9-5L3.2.12A1.94,1.94,0,0,0,1.3.42Z"/><path class="cls-2" d="M2.9.92C1.3,0,0,.82,0,2.62v16a6.41,6.41,0,0,0,2.9,5l14,8.1c1.6.9,2.9.2,2.9-1.7V13.82a6.41,6.41,0,0,0-2.9-5Z"/><path class="cls-3" d="M5.8,16.22a1,1,0,0,0,1.3,0l.7,1.2a1.65,1.65,0,0,1-1.9,0,4.74,4.74,0,0,1-1.8-1.9A4.75,4.75,0,0,1,3.4,13a1.77,1.77,0,0,1,.8-1.7,1.73,1.73,0,0,1,1.8.2,4.65,4.65,0,0,1,1.9,2.2l-.7.5A3.09,3.09,0,0,0,6,12.72c-.4-.2-.7-.3-1-.1a1.05,1.05,0,0,0-.4,1,2.82,2.82,0,0,0,.4,1.5A1.37,1.37,0,0,0,5.8,16.22Z"/><path class="cls-3" d="M9.8,15c-.1,0-.2.1-.2.3s.1.3.2.5a2.44,2.44,0,0,0,.9.8,5.3,5.3,0,0,1,1,1.2,3.26,3.26,0,0,1,.4,1.4,1.1,1.1,0,0,1-.5,1,1.65,1.65,0,0,1-1.3-.2,5.41,5.41,0,0,1-2-2.2l.6-.6a4.62,4.62,0,0,0,1.4,1.6.9.9,0,0,0,.5.1c.1,0,.2-.1.2-.3s-.1-.3-.2-.5a2.23,2.23,0,0,0-.7-.7,4.56,4.56,0,0,1-1.2-1.3,2.3,2.3,0,0,1-.4-1.4,1,1,0,0,1,.5-1,1.88,1.88,0,0,1,1.2.2c.3.2.6.4,1,.7a7,7,0,0,1,.8,1l-.6.6a4,4,0,0,0-1.3-1.3C10,15,9.9,14.92,9.8,15Z"/><path class="cls-3" d="M14.1,17.52c-.1,0-.2.1-.2.3s.1.3.2.5a2.44,2.44,0,0,0,.9.8,5.3,5.3,0,0,1,1,1.2,3.26,3.26,0,0,1,.4,1.4,1.1,1.1,0,0,1-.5,1,1.65,1.65,0,0,1-1.3-.2,5.41,5.41,0,0,1-2-2.2l.6-.6a4.62,4.62,0,0,0,1.4,1.6.9.9,0,0,0,.5.1c.1,0,.2-.1.2-.3s-.1-.3-.2-.5a2.23,2.23,0,0,0-.7-.7,4.56,4.56,0,0,1-1.2-1.3,2.3,2.3,0,0,1-.4-1.4,1,1,0,0,1,.5-1,1.88,1.88,0,0,1,1.2.2c.3.2.6.4,1,.7a7,7,0,0,1,.8,1l-.6.6a4,4,0,0,0-1.3-1.3A.37.37,0,0,0,14.1,17.52Z"/></g></g></svg>