<svg xmlns="http://www.w3.org/2000/svg" xmlns:xlink="http://www.w3.org/1999/xlink" viewBox="0 0 21 32.61"><defs><style>.cls-1{fill:url(#Безымянный_градиент_18);}.cls-2{fill:#5c629e;}.cls-3{fill:#fff;}</style><linearGradient id="Безымянный_градиент_18" x1="0.9" y1="217.12" x2="21.09" y2="217.12" gradientTransform="matrix(1, 0, 0, -1, 0, 233.43)" gradientUnits="userSpaceOnUse"><stop offset="0" stop-color="#fff"/><stop offset="1" stop-color="#5c629e"/></linearGradient></defs><title>Ресурс 11</title><g id="Слой_2" data-name="Слой 2"><g id="Layer_1" data-name="Layer 1"><path class="cls-1" d="M1.4.31.9.71v17.9a6.44,6.44,0,0,0,2.9,5.1l15.3,8.9,1.2-.6a1.21,1.21,0,0,0,.7-1.2V13.71a6.29,6.29,0,0,0-3-5.1L3.3.21A1.87,1.87,0,0,0,1.4.31Z"/><path class="cls-2" d="M3,.91C1.4,0,0,.81,0,2.61v16.3A6.44,6.44,0,0,0,2.9,24l14.3,8.2c1.6.9,2.9.2,2.9-1.7V14.11a6.29,6.29,0,0,0-3-5.1Z"/><path class="cls-3" d="M4.3,10.81l.9.6v4.9l-.9-.6v-1.9l-1.7-1v1.9l-.9-.6V9.21l.9.6v2l1.7,1Z"/><path class="cls-3" d="M8.1,13.91v3.9l-.9-.6v-3.9L6,12.71v-.9l3.3,2v.9Z"/><path class="cls-3" d="M13.8,18.11l-1.2,2-.6-.3-1.1-3.3v3.1L10,19v-4.9l1.3.7,1.1,3.3,1.1-2,1.3.7v4.9l-.9-.6Z"/><path class="cls-3" d="M15.7,22.31v-4.9l.9.6v3.9L18.4,23v1Z"/></g></g></svg>