<svg xmlns="http://www.w3.org/2000/svg" xmlns:xlink="http://www.w3.org/1999/xlink" viewBox="0 0 216.35 229"><defs><style>.cls-1,.cls-56{fill:#d3daed;}.cls-1{opacity:0.44;}.cls-1,.cls-11,.cls-12,.cls-13,.cls-14,.cls-15,.cls-16,.cls-17,.cls-18,.cls-19,.cls-20,.cls-21,.cls-22,.cls-23,.cls-24,.cls-25,.cls-26,.cls-27,.cls-28,.cls-29,.cls-30,.cls-31,.cls-32,.cls-33,.cls-34,.cls-35,.cls-36,.cls-37,.cls-38,.cls-39,.cls-40,.cls-41,.cls-42,.cls-43,.cls-44,.cls-45,.cls-46,.cls-47,.cls-48,.cls-49,.cls-5,.cls-50,.cls-70,.cls-71,.cls-76,.cls-80{isolation:isolate;}.cls-2{fill:#99a7d8;}.cls-3{fill:#48486a;}.cls-4{fill:url(#Безымянный_градиент_27);}.cls-5,.cls-66{fill:#231f20;}.cls-5,.cls-65,.cls-80{opacity:0.3;}.cls-6{fill:url(#Безымянный_градиент_27-2);}.cls-7{fill:#5c629e;}.cls-8{fill:url(#Безымянный_градиент_3);}.cls-9{fill:#f9f7f9;}.cls-10,.cls-57,.cls-80{fill:#fff;}.cls-10{fill-opacity:0;}.cls-11{fill:#fbfbfb;opacity:0.02;}.cls-12{fill:#f6f6f8;opacity:0.05;}.cls-13{fill:#f2f2f4;opacity:0.07;}.cls-14{fill:#ededf0;opacity:0.1;}.cls-15{fill:#e9e9ed;opacity:0.12;}.cls-16{fill:#e4e4e9;opacity:0.15;}.cls-17{fill:#e0e0e6;opacity:0.17;}.cls-18{fill:#dbdbe2;opacity:0.2;}.cls-19{fill:#d7d7de;opacity:0.22;}.cls-20{fill:#d2d2db;opacity:0.24;}.cls-21{fill:#ceced7;opacity:0.27;}.cls-22{fill:#c9c9d3;opacity:0.29;}.cls-23{fill:#c5c5d0;opacity:0.32;}.cls-24{fill:#c1c1cc;opacity:0.34;}.cls-25{fill:#bcbcc8;opacity:0.37;}.cls-26{fill:#b8b8c5;opacity:0.39;}.cls-27{fill:#b3b3c1;opacity:0.41;}.cls-28{fill:#afafbe;opacity:0.44;}.cls-29{fill:#aaaaba;opacity:0.46;}.cls-30{fill:#a6a6b6;opacity:0.49;}.cls-31{fill:#a1a1b3;opacity:0.51;}.cls-32{fill:#9d9daf;opacity:0.54;}.cls-33{fill:#9898ab;opacity:0.56;}.cls-34{fill:#9494a8;opacity:0.59;}.cls-35{fill:#8f8fa4;opacity:0.61;}.cls-36{fill:#8b8ba1;opacity:0.63;}.cls-37{fill:#86869d;opacity:0.66;}.cls-38{fill:#828299;opacity:0.68;}.cls-39{fill:#7e7e96;opacity:0.71;}.cls-40{fill:#797992;opacity:0.73;}.cls-41{fill:#75758e;opacity:0.76;}.cls-42{fill:#70708b;opacity:0.78;}.cls-43{fill:#6c6c87;opacity:0.8;}.cls-44{fill:#676783;opacity:0.83;}.cls-45{fill:#636380;opacity:0.85;}.cls-46{fill:#5e5e7c;opacity:0.88;}.cls-47{fill:#5a5a79;opacity:0.9;}.cls-48{fill:#555575;opacity:0.93;}.cls-49{fill:#515171;opacity:0.95;}.cls-50{fill:#4c4c6e;opacity:0.98;}.cls-51{fill:url(#Безымянный_градиент_4);}.cls-52{fill:url(#Безымянный_градиент_5);}.cls-53{fill:url(#Безымянный_градиент_6);}.cls-54{fill:#f7f7f7;}.cls-55{fill:#e5e9f4;}.cls-58{fill:url(#Безымянный_градиент_9);}.cls-59{fill:url(#Безымянный_градиент_24);}.cls-60{fill:#f1f2f2;}.cls-61{fill:#f5c5c8;}.cls-62{fill:#f2b1b5;}.cls-63{fill:#f5f7f9;}.cls-64,.cls-71{fill:#6d6d88;}.cls-67{fill:#edf0f8;}.cls-68{fill:#363650;}.cls-69{fill:#2842a2;}.cls-70{opacity:0.83;fill:url(#Безымянный_градиент_12);}.cls-71{opacity:0.49;}.cls-72{fill:url(#Безымянный_градиент_12-2);}.cls-73{fill:#7d81b1;}.cls-74{fill:#9ea4b2;}.cls-75{fill:#dce1f1;}.cls-76{opacity:0.59;fill:url(#Безымянный_градиент_21);}.cls-77{fill:url(#Безымянный_градиент_23);}.cls-78{fill:url(#Безымянный_градиент_23-2);}.cls-79{fill:url(#Безымянный_градиент_24-2);}.cls-81{fill:url(#Безымянный_градиент_25);}.cls-82{fill:#ffc107;}.cls-83{fill:url(#Безымянный_градиент_27-3);}.cls-84{fill:url(#Безымянный_градиент_27-4);}</style><linearGradient id="Безымянный_градиент_27" x1="40.05" y1="61.7" x2="86.16" y2="61.7" gradientTransform="matrix(1, 0, 0, -1, 0, 206.4)" gradientUnits="userSpaceOnUse"><stop offset="0" stop-color="#ff9800"/><stop offset="1" stop-color="#ffc107"/></linearGradient><linearGradient id="Безымянный_градиент_27-2" x1="61.59" y1="45.5" x2="107.75" y2="45.5" xlink:href="#Безымянный_градиент_27"/><linearGradient id="Безымянный_градиент_3" x1="11.62" y1="98.95" x2="216.32" y2="98.95" gradientTransform="matrix(1, 0, 0, -1, 0, 206.4)" gradientUnits="userSpaceOnUse"><stop offset="0" stop-color="#ebe9ec"/><stop offset="1" stop-color="#d3daed"/></linearGradient><linearGradient id="Безымянный_градиент_4" x1="85.82" y1="136.75" x2="128.72" y2="136.75" gradientTransform="matrix(1, 0, 0, -1, 0, 206.4)" gradientUnits="userSpaceOnUse"><stop offset="0" stop-color="#ebe9ec"/><stop offset="1" stop-color="#99a7d8"/></linearGradient><linearGradient id="Безымянный_градиент_5" x1="87" y1="133.59" x2="125.84" y2="138.75" gradientTransform="matrix(1, 0, 0, -1, 0, 206.4)" gradientUnits="userSpaceOnUse"><stop offset="0.02" stop-color="#ffc107"/><stop offset="0.32" stop-color="#ffaf04"/><stop offset="0.71" stop-color="#ff9e01"/><stop offset="1" stop-color="#ff9800"/></linearGradient><linearGradient id="Безымянный_градиент_6" x1="57.52" y1="110.45" x2="127.54" y2="110.45" gradientTransform="matrix(1, 0, 0, -1, 0, 206.4)" gradientUnits="userSpaceOnUse"><stop offset="0" stop-color="#fff"/><stop offset="1" stop-color="#99a7d8"/></linearGradient><linearGradient id="Безымянный_градиент_9" x1="48.76" y1="129.93" x2="78.44" y2="129.93" gradientTransform="matrix(1, 0, 0, -1, 0, 206.4)" gradientUnits="userSpaceOnUse"><stop offset="0" stop-color="#d3daed"/><stop offset="1" stop-color="#99a7d8"/></linearGradient><linearGradient id="Безымянный_градиент_24" x1="51.47" y1="128.81" x2="75.77" y2="132.02" gradientTransform="matrix(1, 0, 0, -1, 0, 206.4)" gradientUnits="userSpaceOnUse"><stop offset="0.02" stop-color="#ffc107"/><stop offset="0.44" stop-color="#ffb204"/><stop offset="1" stop-color="#ff9800"/></linearGradient><linearGradient id="Безымянный_градиент_12" x1="100.65" y1="180.79" x2="125.72" y2="180.79" gradientTransform="matrix(1, 0, 0, -1, 0, 206.4)" gradientUnits="userSpaceOnUse"><stop offset="0.02" stop-color="#ffc107"/><stop offset="0.14" stop-color="#ffbc06"/><stop offset="1" stop-color="#ff9800"/></linearGradient><linearGradient id="Безымянный_градиент_12-2" x1="92.58" y1="197.78" x2="133.97" y2="197.78" xlink:href="#Безымянный_градиент_12"/><radialGradient id="Безымянный_градиент_21" cx="125.95" cy="-6754.63" r="8.95" gradientTransform="matrix(1, 0, 0, -0.55, 0, -3565.64)" gradientUnits="userSpaceOnUse"><stop offset="0.53" stop-color="#48486a"/><stop offset="0.59" stop-color="#6f6f8a"/><stop offset="0.65" stop-color="#9b9bad"/><stop offset="0.72" stop-color="#bfbfcb"/><stop offset="0.79" stop-color="#dbdbe2"/><stop offset="0.86" stop-color="#efeff2"/><stop offset="0.93" stop-color="#fbfbfc"/><stop offset="1" stop-color="#fff"/></radialGradient><linearGradient id="Безымянный_градиент_23" x1="120.16" y1="95.3" x2="131.74" y2="95.3" gradientTransform="matrix(1, 0, 0, -1, 0, 206.4)" gradientUnits="userSpaceOnUse"><stop offset="0.02" stop-color="#5c629e"/><stop offset="0.37" stop-color="#565b8f"/><stop offset="1" stop-color="#48486a"/></linearGradient><linearGradient id="Безымянный_градиент_23-2" x1="120.65" y1="102.55" x2="131.23" y2="102.55" xlink:href="#Безымянный_градиент_23"/><linearGradient id="Безымянный_градиент_24-2" x1="121.11" y1="101.7" x2="130.76" y2="101.7" xlink:href="#Безымянный_градиент_24"/><linearGradient id="Безымянный_градиент_25" x1="110.72" y1="77.6" x2="164.82" y2="77.6" gradientTransform="matrix(1, 0, 0, -1, 0, 206.4)" gradientUnits="userSpaceOnUse"><stop offset="0.01" stop-color="#eff1f8"/><stop offset="0.18" stop-color="#dbe0f1"/><stop offset="0.53" stop-color="#b7c1e3"/><stop offset="0.82" stop-color="#a1aedb"/><stop offset="1" stop-color="#99a7d8"/></linearGradient><linearGradient id="Безымянный_градиент_27-3" x1="137.07" y1="66.98" x2="174.57" y2="66.98" xlink:href="#Безымянный_градиент_27"/><linearGradient id="Безымянный_градиент_27-4" x1="157.56" y1="88.48" x2="158.35" y2="89.78" xlink:href="#Безымянный_градиент_27"/></defs><title>Ресурс 1</title><g id="Слой_2" data-name="Слой 2"><g id="Layer_1" data-name="Layer 1"><path class="cls-1" d="M1.82,200.9l37.7,22.4,50.8-28.5,40.3,22.6a4.2,4.2,0,0,0,4.2-.1l44.3-27.2a4.16,4.16,0,0,0,0-7.1L58.72,114.8,7,150l39.8,20.2-45,26.1A2.63,2.63,0,0,0,1.82,200.9Z"/><path class="cls-2" d="M73.22,164.5v6.8a4.75,4.75,0,0,0,2.4,4.1l.9.7a13.36,13.36,0,0,0,13,.2l12-6.5a2.07,2.07,0,0,0,0-3.6h0c-2.3-1.3-5-3.3-7.5-3a20.85,20.85,0,0,1-3.5.4l-5.6.8Z"/><path class="cls-3" d="M101.42,168.2l-12,6.5a13.36,13.36,0,0,1-13-.2l-.9-.7a4.63,4.63,0,0,1-2.4-4.1v1.6a4.75,4.75,0,0,0,2.4,4.1l.9.7a13.36,13.36,0,0,0,13,.2l12-6.5a2,2,0,0,0,.9-2.6A1.47,1.47,0,0,1,101.42,168.2Z"/><path class="cls-4" d="M79.12,173a7,7,0,0,1-7-6.6L70,131.2l-19.3,11.5a7,7,0,1,1-7.2-12L64.82,118a12.47,12.47,0,0,1,12.4-.3,12.6,12.6,0,0,1,6.7,10.4l2.3,37.6a7.12,7.12,0,0,1-6.6,7.5A.55.55,0,0,0,79.12,173Z"/><path class="cls-2" d="M94.72,180.8v6.8a4.75,4.75,0,0,0,2.4,4.1l.9.7a13.36,13.36,0,0,0,13,.2l12-6.5a2.07,2.07,0,0,0,0-3.6h0c-2.3-1.3-5-3.3-7.5-3a20.85,20.85,0,0,1-3.5.4l-5.6.8Z"/><path class="cls-3" d="M123,184.5,111,191a13.36,13.36,0,0,1-13-.2l-.9-.7a4.63,4.63,0,0,1-2.4-4.1v1.6a4.75,4.75,0,0,0,2.4,4.1l.9.7a13.36,13.36,0,0,0,13,.2l12-6.5a2,2,0,0,0,.9-2.6A2.19,2.19,0,0,1,123,184.5Z"/><path class="cls-5" d="M71.42,154.6a5.94,5.94,0,0,0,.8-.4L85,146.6l-1-12.3L70.82,141Z"/><path class="cls-6" d="M100.72,189.3a7,7,0,0,1-7-6.6l-2.1-35.2L72.32,159a7,7,0,1,1-7.2-12l21.2-12.8a12.47,12.47,0,0,1,12.4-.3,12.6,12.6,0,0,1,6.7,10.4l2.3,37.6a7.12,7.12,0,0,1-6.6,7.5A.6.6,0,0,0,100.72,189.3Z"/><path class="cls-7" d="M127.72,229h-.3a2.39,2.39,0,0,1-2.1-2.7l8.8-82c.2-1.3,2.1-2.3,3.5-2.1s3.1,1.3,2.9,2.7l-10.4,82A2.46,2.46,0,0,1,127.72,229Z"/><path class="cls-7" d="M15.22,164.6h-.3a2.39,2.39,0,0,1-2.1-2.7l8.8-82c.2-1.3,2.1-2.3,3.5-2.1s3.1,1.3,2.9,2.7l-10.4,82A2.46,2.46,0,0,1,15.22,164.6Z"/><path class="cls-7" d="M206,184a2.46,2.46,0,0,1-2.4-2.1l-8.1-62.3c-.2-1.3,1.6-2.5,2.9-2.7s3.3.8,3.5,2.1l6.5,62.3a2.45,2.45,0,0,1-2.1,2.7Z"/><path class="cls-5" d="M137.52,142.2c-1.3-.2-3.3.8-3.5,2.1l-2.4,22,5.6,3.2,3.1-24.7C140.62,143.5,138.82,142.3,137.52,142.2Z"/><path class="cls-5" d="M19.22,102.1l5.6,3.2,3.1-24.8a2.31,2.31,0,0,0-1.2-2l-5.3,2.7Z"/><path class="cls-5" d="M201.92,119c-.2-1.3-2.1-2.3-3.5-2.1s-3.1,1.3-2.9,2.7l3.1,24,5.5-3.1Z"/><path class="cls-8" d="M77.12,49.2a7.63,7.63,0,0,1,6.9,0l132.3,73v3.9a3.53,3.53,0,0,1-1.8,3.1l-63.7,36.5a7.63,7.63,0,0,1-6.9,0L13.32,90.3a3.4,3.4,0,0,1-1.7-3V83.4Z"/><path class="cls-9" d="M77.12,44.8a7.63,7.63,0,0,1,6.9,0l130.9,75.5c1.9,1.1,1.9,2.9,0,4l-64.1,37a7.63,7.63,0,0,1-6.9,0L13,85.8c-1.9-1.1-1.9-2.9,0-4Z"/><path class="cls-10" d="M83.32,76.8l-27,15.4a.85.85,0,0,0,0,1.5l42,24.3a3.63,3.63,0,0,0,3.5,0l27-15.4a.85.85,0,0,0,0-1.5l-42-24.3A3.63,3.63,0,0,0,83.32,76.8Z"/><path class="cls-11" d="M83.42,76.8l-27,15.4a.85.85,0,0,0,0,1.5l41.9,24.2a3.63,3.63,0,0,0,3.5,0l26.9-15.4a.85.85,0,0,0,0-1.5L86.82,76.8A3.44,3.44,0,0,0,83.42,76.8Z"/><path class="cls-12" d="M83.42,76.9,56.62,92.2a.85.85,0,0,0,0,1.5l41.8,24.1a3.63,3.63,0,0,0,3.5,0l26.8-15.3a.85.85,0,0,0,0-1.5L86.92,76.9A3.18,3.18,0,0,0,83.42,76.9Z"/><path class="cls-13" d="M83.42,76.9,56.72,92.2a.85.85,0,0,0,0,1.5l41.7,24.1a3.43,3.43,0,0,0,3.4,0l26.8-15.3a.85.85,0,0,0,0-1.5L86.92,76.9A3.63,3.63,0,0,0,83.42,76.9Z"/><path class="cls-14" d="M83.52,76.9,56.82,92.1a.85.85,0,0,0,0,1.5l41.5,24a3.43,3.43,0,0,0,3.4,0l26.7-15.2a.85.85,0,0,0,0-1.5l-41.5-24A3.43,3.43,0,0,0,83.52,76.9Z"/><path class="cls-15" d="M83.52,76.9,56.92,92.1a.85.85,0,0,0,0,1.5l41.4,23.9a3.43,3.43,0,0,0,3.4,0l26.6-15.2a.85.85,0,0,0,0-1.5L86.92,76.9A3.43,3.43,0,0,0,83.52,76.9Z"/><path class="cls-16" d="M83.52,77,57,92.2a.85.85,0,0,0,0,1.5l41.3,23.8a3.43,3.43,0,0,0,3.4,0l26.5-15.2a.85.85,0,0,0,0-1.5L86.92,77A3,3,0,0,0,83.52,77Z"/><path class="cls-17" d="M83.52,77,57.12,92.1a.85.85,0,0,0,0,1.5l41.2,23.8a3.44,3.44,0,0,0,3.4,0l26.4-15.1a.85.85,0,0,0,0-1.5L86.92,77A3.43,3.43,0,0,0,83.52,77Z"/><path class="cls-18" d="M83.62,77,57.32,92.1a.85.85,0,0,0,0,1.5l41,23.7a3.43,3.43,0,0,0,3.4,0L128,102.2a.85.85,0,0,0,0-1.5L87,77A3.43,3.43,0,0,0,83.62,77Z"/><path class="cls-19" d="M83.62,77,57.32,92a.85.85,0,0,0,0,1.5l40.9,23.6a3.43,3.43,0,0,0,3.4,0l26.3-15a.85.85,0,0,0,0-1.5L87,77A3.43,3.43,0,0,0,83.62,77Z"/><path class="cls-20" d="M83.62,77.1l-26.2,15a.85.85,0,0,0,0,1.5l40.8,23.5a3.43,3.43,0,0,0,3.4,0l26.2-15a.85.85,0,0,0,0-1.5L87,77.1A3.44,3.44,0,0,0,83.62,77.1Z"/><path class="cls-21" d="M83.62,77.1,57.52,92a.85.85,0,0,0,0,1.5L98.12,117a3.43,3.43,0,0,0,3.4,0l26.1-14.9a.85.85,0,0,0,0-1.5L87,77.1A3.43,3.43,0,0,0,83.62,77.1Z"/><path class="cls-22" d="M83.72,77.1,57.72,92a.85.85,0,0,0,0,1.5l40.5,23.4a3.25,3.25,0,0,0,3.3,0l26-14.9a.85.85,0,0,0,0-1.5L87,77.1A3.25,3.25,0,0,0,83.72,77.1Z"/><path class="cls-23" d="M83.72,77.1,57.82,91.9a.85.85,0,0,0,0,1.5l40.4,23.3a3.25,3.25,0,0,0,3.3,0l25.9-14.8a.85.85,0,0,0,0-1.5L87,77.1A3.25,3.25,0,0,0,83.72,77.1Z"/><path class="cls-24" d="M83.72,77.2,57.92,91.9a.85.85,0,0,0,0,1.5l40.3,23.2a3.25,3.25,0,0,0,3.3,0l25.9-14.8a.85.85,0,0,0,0-1.5L87.12,77.2A3.44,3.44,0,0,0,83.72,77.2Z"/><path class="cls-25" d="M83.82,77.2,58,91.9a.85.85,0,0,0,0,1.5l40.1,23.2a3.25,3.25,0,0,0,3.3,0l25.8-14.7a.85.85,0,0,0,0-1.5L87.12,77.2A3.25,3.25,0,0,0,83.82,77.2Z"/><path class="cls-26" d="M83.82,77.2,58.12,91.9a.77.77,0,0,0,0,1.4l40,23.1a3.25,3.25,0,0,0,3.3,0l25.7-14.7a.77.77,0,0,0,0-1.4l-40-23.1A3.25,3.25,0,0,0,83.82,77.2Z"/><path class="cls-27" d="M83.82,77.2,58.22,91.8a.77.77,0,0,0,0,1.4l39.9,23a3.25,3.25,0,0,0,3.3,0L127,101.6a.77.77,0,0,0,0-1.4l-39.9-23A3.25,3.25,0,0,0,83.82,77.2Z"/><path class="cls-28" d="M83.82,77.3,58.32,91.9a.77.77,0,0,0,0,1.4l39.8,22.9a3.25,3.25,0,0,0,3.3,0l25.5-14.6a.77.77,0,0,0,0-1.4L87.22,77.3A3.44,3.44,0,0,0,83.82,77.3Z"/><path class="cls-29" d="M83.92,77.3,58.52,91.8a.77.77,0,0,0,0,1.4l39.6,22.9a3.25,3.25,0,0,0,3.3,0l25.4-14.5a.77.77,0,0,0,0-1.4L87.22,77.3A3.25,3.25,0,0,0,83.92,77.3Z"/><path class="cls-30" d="M83.92,77.3,58.52,91.8a.77.77,0,0,0,0,1.4L98,116a3.25,3.25,0,0,0,3.3,0l25.4-14.5a.77.77,0,0,0,0-1.4L87.22,77.3A3.25,3.25,0,0,0,83.92,77.3Z"/><path class="cls-31" d="M83.92,77.3,58.62,91.8a.8.8,0,0,0,0,1.4L98,115.9a3.07,3.07,0,0,0,3.2,0l25.3-14.5a.8.8,0,0,0,0-1.4L87.12,77.3A3.31,3.31,0,0,0,83.92,77.3Z"/><path class="cls-32" d="M84,77.4,58.82,91.8a.84.84,0,0,0,0,1.4L98,115.9a3.07,3.07,0,0,0,3.2,0l25.2-14.4a.84.84,0,0,0,0-1.4L87.22,77.4A3.07,3.07,0,0,0,84,77.4Z"/><path class="cls-33" d="M84,77.4,58.92,91.7a.84.84,0,0,0,0,1.4L98,115.7a3.07,3.07,0,0,0,3.2,0l25.1-14.4a.84.84,0,0,0,0-1.4L87.22,77.3A3.31,3.31,0,0,0,84,77.4Z"/><path class="cls-34" d="M84,77.4,59,91.7a.84.84,0,0,0,0,1.4l39,22.5a3.07,3.07,0,0,0,3.2,0l25-14.3a.84.84,0,0,0,0-1.4l-39-22.5A3.07,3.07,0,0,0,84,77.4Z"/><path class="cls-35" d="M84,77.4,59,91.7a.84.84,0,0,0,0,1.4l38.9,22.4a3.07,3.07,0,0,0,3.2,0l25-14.3a.84.84,0,0,0,0-1.4L87.32,77.4A3.82,3.82,0,0,0,84,77.4Z"/><path class="cls-36" d="M84.12,77.5,59.22,91.7a.84.84,0,0,0,0,1.4l38.7,22.3a3.07,3.07,0,0,0,3.2,0L126,101.2a.84.84,0,0,0,0-1.4L87.32,77.4A3.31,3.31,0,0,0,84.12,77.5Z"/><path class="cls-37" d="M84.12,77.5,59.32,91.7a.84.84,0,0,0,0,1.4l38.6,22.2a3.07,3.07,0,0,0,3.2,0l24.8-14.1a.84.84,0,0,0,0-1.4L87.32,77.5A3.07,3.07,0,0,0,84.12,77.5Z"/><path class="cls-38" d="M84.12,77.5,59.42,91.6a.84.84,0,0,0,0,1.4l38.5,22.2a3.07,3.07,0,0,0,3.2,0l24.7-14.1a.84.84,0,0,0,0-1.4L87.32,77.5A3.07,3.07,0,0,0,84.12,77.5Z"/><path class="cls-39" d="M84.22,77.5,59.62,91.6a.84.84,0,0,0,0,1.4l38.3,22.1a3.07,3.07,0,0,0,3.2,0l24.6-14.1a.84.84,0,0,0,0-1.4L87.42,77.5A3.59,3.59,0,0,0,84.22,77.5Z"/><path class="cls-40" d="M84.22,77.6l-24.5,14a.84.84,0,0,0,0,1.4l38.2,22.1a3.07,3.07,0,0,0,3.2,0l24.5-14a.84.84,0,0,0,0-1.4L87.42,77.6A3.07,3.07,0,0,0,84.22,77.6Z"/><path class="cls-41" d="M84.22,77.6l-24.5,14a.84.84,0,0,0,0,1.4l38.1,22a2.89,2.89,0,0,0,3.1,0l24.5-14a.84.84,0,0,0,0-1.4l-38.1-22A2.89,2.89,0,0,0,84.22,77.6Z"/><path class="cls-42" d="M84.22,77.6,59.92,91.5a.84.84,0,0,0,0,1.4l38,21.9a2.89,2.89,0,0,0,3.1,0l24.4-13.9a.84.84,0,0,0,0-1.4l-38-21.9A3.07,3.07,0,0,0,84.22,77.6Z"/><path class="cls-43" d="M84.32,77.6,60,91.5a.84.84,0,0,0,0,1.4l37.8,21.8a2.89,2.89,0,0,0,3.1,0l24.3-13.9a.84.84,0,0,0,0-1.4L87.42,77.6A3.39,3.39,0,0,0,84.32,77.6Z"/><path class="cls-44" d="M84.32,77.7,60.12,91.5a.84.84,0,0,0,0,1.4l37.7,21.8a2.89,2.89,0,0,0,3.1,0l24.2-13.8a.84.84,0,0,0,0-1.4L87.42,77.7A2.89,2.89,0,0,0,84.32,77.7Z"/><path class="cls-45" d="M84.32,77.7,60.22,91.5a.84.84,0,0,0,0,1.4l37.6,21.7a2.89,2.89,0,0,0,3.1,0L125,100.8a.84.84,0,0,0,0-1.4L87.42,77.7A2.89,2.89,0,0,0,84.32,77.7Z"/><path class="cls-46" d="M84.42,77.7l-24,13.7a.84.84,0,0,0,0,1.4l37.4,21.6a2.89,2.89,0,0,0,3.1,0l24-13.7a.84.84,0,0,0,0-1.4L87.52,77.7A3.39,3.39,0,0,0,84.42,77.7Z"/><path class="cls-47" d="M84.42,77.7l-24,13.7a.75.75,0,0,0,0,1.3l37.3,21.5a3.12,3.12,0,0,0,3.1,0l24-13.7a.75.75,0,0,0,0-1.3L87.52,77.7A3.39,3.39,0,0,0,84.42,77.7Z"/><path class="cls-48" d="M84.42,77.8,60.52,91.5a.75.75,0,0,0,0,1.3l37.2,21.4a3.12,3.12,0,0,0,3.1,0l23.9-13.7a.75.75,0,0,0,0-1.3L87.52,77.7A3.12,3.12,0,0,0,84.42,77.8Z"/><path class="cls-49" d="M84.42,77.8,60.62,91.4a.75.75,0,0,0,0,1.3l37.1,21.4a3.39,3.39,0,0,0,3.1,0l23.8-13.6a.75.75,0,0,0,0-1.3L87.52,77.8A2.89,2.89,0,0,0,84.42,77.8Z"/><path class="cls-50" d="M84.52,77.8,60.82,91.4a.75.75,0,0,0,0,1.3L97.72,114a3.19,3.19,0,0,0,3,0l23.7-13.6a.75.75,0,0,0,0-1.3L87.52,77.8A3.19,3.19,0,0,0,84.52,77.8Z"/><path class="cls-3" d="M84.52,77.8,60.92,91.3a.75.75,0,0,0,0,1.3l36.8,21.2a3.19,3.19,0,0,0,3,0l23.6-13.5a.75.75,0,0,0,0-1.3L87.52,77.8A3.19,3.19,0,0,0,84.52,77.8Z"/><path class="cls-51" d="M127.82,65,87,41.4a.8.8,0,0,0-1.2.7V72.8a1.92,1.92,0,0,0,.9,1.6l40.8,23.5a.8.8,0,0,0,1.2-.7V66.5A1.65,1.65,0,0,0,127.82,65Z"/><path class="cls-3" d="M127.32,65.3,86.52,41.8a.8.8,0,0,0-1.2.7V73.2a1.92,1.92,0,0,0,.9,1.6L127,98.3a.8.8,0,0,0,1.2-.7V66.9A1.89,1.89,0,0,0,127.32,65.3Z"/><polygon class="cls-52" points="125.82 67.3 87.42 45 87.42 73.1 125.82 95.4 125.82 67.3"/><path class="cls-53" d="M83.62,76.3,57.52,90.1s-.1,2,.4,2.4l40,23.1a3.25,3.25,0,0,0,3.3,0l25.7-14.7c1.1-.7.4-2.4.4-2.4L86.92,76.3A3.25,3.25,0,0,0,83.62,76.3Z"/><path class="cls-54" d="M83.62,74.7,57.92,89.4a.77.77,0,0,0,0,1.4l40,23.1a3.25,3.25,0,0,0,3.3,0l25.7-14.7a.77.77,0,0,0,0-1.4l-40-23.1A3.25,3.25,0,0,0,83.62,74.7Z"/><path class="cls-55" d="M81.32,93.7l-6.8,3.9a.3.3,0,0,0,0,.4L85,104.1a.75.75,0,0,0,.9,0l6.8-3.9a.3.3,0,0,0,0-.4l-10.5-6.1A.75.75,0,0,0,81.32,93.7Z"/><path class="cls-56" d="M86.42,76.9l2.2,1.3c.1.1.1.2,0,.2l-1.1.6a.19.19,0,0,1-.3,0L85,77.7c-.1-.1-.1-.2,0-.2l1.1-.6Z"/><path class="cls-56" d="M89.72,78.8l2.2,1.3c.1.1.1.2,0,.2l-1.1.6a.19.19,0,0,1-.3,0l-2.2-1.3c-.1-.1-.1-.2,0-.2l1.1-.6Z"/><path class="cls-56" d="M92.92,80.7l2.2,1.3c.1.1.1.2,0,.2l-1.1.6a.19.19,0,0,1-.3,0l-2.2-1.3c-.1-.1-.1-.2,0-.2l1.1-.6A.19.19,0,0,1,92.92,80.7Z"/><path class="cls-56" d="M96.32,82.6l2.2,1.3c.1.1.1.2,0,.2l-1.1.6a.19.19,0,0,1-.3,0l-2.2-1.3c-.1-.1-.1-.2,0-.2l1.1-.6A.19.19,0,0,1,96.32,82.6Z"/><path class="cls-56" d="M99.52,84.4l2.2,1.3c.1.1.1.2,0,.2l-1.1.6a.19.19,0,0,1-.3,0l-2.2-1.3c-.1-.1-.1-.2,0-.2l1.1-.6A.19.19,0,0,1,99.52,84.4Z"/><path class="cls-56" d="M102.62,86.3l2.2,1.3c.1.1.1.2,0,.2l-1.1.6a.19.19,0,0,1-.3,0l-2.2-1.3c-.1-.1-.1-.2,0-.2l1.1-.6C102.42,86.2,102.62,86.2,102.62,86.3Z"/><path class="cls-56" d="M105.92,88.1l2.2,1.3c.1.1.1.2,0,.2l-1.1.6a.19.19,0,0,1-.3,0l-2.2-1.3c-.1-.1-.1-.2,0-.2l1.1-.6Z"/><path class="cls-56" d="M109.22,90l2.2,1.3c.1.1.1.2,0,.2l-1.1.6a.19.19,0,0,1-.3,0l-2.2-1.3c-.1-.1-.1-.2,0-.2l1.1-.6Z"/><path class="cls-56" d="M112.32,91.9l2.2,1.3c.1.1.1.2,0,.2l-1.1.6a.19.19,0,0,1-.3,0l-2.2-1.3c-.1-.1-.1-.2,0-.2l1.1-.6Z"/><path class="cls-56" d="M115.72,93.8l2.2,1.3c.1.1.1.2,0,.2l-1.1.6a.19.19,0,0,1-.3,0l-2.2-1.3c-.1-.1-.1-.2,0-.2l1.1-.6Z"/><path class="cls-56" d="M118.92,95.7l2.2,1.3c.1.1.1.2,0,.2l-1.1.6a.19.19,0,0,1-.3,0l-2.2-1.3c-.1-.1-.1-.2,0-.2l1.1-.6A.19.19,0,0,1,118.92,95.7Z"/><path class="cls-56" d="M81.92,79.3l1.5-.9a.64.64,0,0,1,.6,0l1.5.8a.28.28,0,0,1,0,.5l-1.5.9a.64.64,0,0,1-.6,0l-1.5-.9C81.72,79.7,81.72,79.4,81.92,79.3Z"/><path class="cls-56" d="M85.32,81.3l1.5-.9a.64.64,0,0,1,.6,0l1.5.8a.28.28,0,0,1,0,.5l-1.5.9a.64.64,0,0,1-.6,0l-1.5-.9C85.12,81.7,85.12,81.4,85.32,81.3Z"/><path class="cls-56" d="M88.52,83.1l1.5-.9a.64.64,0,0,1,.6,0l1.5.8a.28.28,0,0,1,0,.5l-1.5.9a.64.64,0,0,1-.6,0l-1.5-.9C88.32,83.5,88.32,83.2,88.52,83.1Z"/><path class="cls-56" d="M92,85l1.5-.9a.64.64,0,0,1,.6,0l1.5.8a.28.28,0,0,1,0,.5l-1.5.9a.64.64,0,0,1-.6,0L92,85.4C91.82,85.4,91.82,85.1,92,85Z"/><path class="cls-56" d="M95.12,86.8l1.5-.9a.64.64,0,0,1,.6,0l1.5.8a.28.28,0,0,1,0,.5l-1.5.9a.64.64,0,0,1-.6,0l-1.5-.9C94.92,87.2,94.92,86.9,95.12,86.8Z"/><path class="cls-56" d="M98.22,88.7l1.5-.9a.64.64,0,0,1,.6,0l1.5.8a.28.28,0,0,1,0,.5l-1.5.9a.64.64,0,0,1-.6,0l-1.5-.9C98,89.1,98,88.8,98.22,88.7Z"/><path class="cls-56" d="M101.52,90.5l1.5-.9a.64.64,0,0,1,.6,0l1.5.8a.28.28,0,0,1,0,.5l-1.5.9a.64.64,0,0,1-.6,0l-1.5-.9C101.32,90.9,101.32,90.6,101.52,90.5Z"/><path class="cls-56" d="M104.72,92.4l1.5-.9a.64.64,0,0,1,.6,0l1.5.8a.28.28,0,0,1,0,.5l-1.5.9a.64.64,0,0,1-.6,0l-1.5-.9C104.52,92.8,104.52,92.5,104.72,92.4Z"/><path class="cls-56" d="M107.92,94.3l1.5-.9a.64.64,0,0,1,.6,0l1.5.8a.28.28,0,0,1,0,.5l-1.5.9a.64.64,0,0,1-.6,0l-1.5-.9C107.72,94.7,107.72,94.4,107.92,94.3Z"/><path class="cls-56" d="M111.42,96.4l1.5-.9a.64.64,0,0,1,.6,0l1.5.8a.28.28,0,0,1,0,.5l-1.5.9a.64.64,0,0,1-.6,0l-1.5-.9C111.22,96.8,111.22,96.5,111.42,96.4Z"/><path class="cls-56" d="M114.62,98.1l1.5-.9a.64.64,0,0,1,.6,0l1.5.8a.28.28,0,0,1,0,.5l-1.5.9a.64.64,0,0,1-.6,0l-1.5-.9C114.42,98.5,114.42,98.2,114.62,98.1Z"/><path class="cls-56" d="M78.62,81.1l1.5-.9a.64.64,0,0,1,.6,0l1.5.8a.28.28,0,0,1,0,.5l-1.5.9a.64.64,0,0,1-.6,0l-1.5-.9C78.42,81.6,78.42,81.3,78.62,81.1Z"/><path class="cls-56" d="M81.92,83.1l1.5-.9a.64.64,0,0,1,.6,0l1.5.8a.28.28,0,0,1,0,.5l-1.5.9a.64.64,0,0,1-.6,0l-1.5-.9C81.72,83.5,81.72,83.2,81.92,83.1Z"/><path class="cls-56" d="M85.22,84.9l1.5-.9a.64.64,0,0,1,.6,0l1.5.8a.28.28,0,0,1,0,.5l-1.5.9a.64.64,0,0,1-.6,0l-1.5-.9C85,85.3,85,85,85.22,84.9Z"/><path class="cls-56" d="M88.72,86.8l1.5-.9a.64.64,0,0,1,.6,0l1.5.8a.28.28,0,0,1,0,.5l-1.5.9a.64.64,0,0,1-.6,0l-1.5-.9C88.52,87.2,88.52,86.9,88.72,86.8Z"/><path class="cls-56" d="M91.72,88.6l1.5-.9a.64.64,0,0,1,.6,0l1.5.8a.28.28,0,0,1,0,.5l-1.5.9a.64.64,0,0,1-.6,0l-1.5-.9C91.52,89,91.52,88.7,91.72,88.6Z"/><path class="cls-56" d="M94.82,90.5l1.5-.9a.64.64,0,0,1,.6,0l1.5.8a.28.28,0,0,1,0,.5l-1.5.9a.64.64,0,0,1-.6,0l-1.5-.9C94.62,90.9,94.62,90.6,94.82,90.5Z"/><path class="cls-56" d="M98.22,92.3l1.5-.9a.64.64,0,0,1,.6,0l1.5.8a.28.28,0,0,1,0,.5l-1.5.9a.64.64,0,0,1-.6,0l-1.5-.9C97.92,92.8,97.92,92.5,98.22,92.3Z"/><path class="cls-56" d="M101.42,94.2l1.5-.9a.64.64,0,0,1,.6,0l1.5.8a.28.28,0,0,1,0,.5l-1.5.9a.64.64,0,0,1-.6,0l-1.5-.9C101.22,94.6,101.22,94.3,101.42,94.2Z"/><path class="cls-56" d="M104.62,96.1l1.5-.9a.64.64,0,0,1,.6,0l1.5.8a.28.28,0,0,1,0,.5l-1.5.9a.64.64,0,0,1-.6,0l-1.5-.9C104.42,96.6,104.42,96.3,104.62,96.1Z"/><path class="cls-56" d="M108.12,98.2l1.5-.9a.64.64,0,0,1,.6,0l1.5.8a.28.28,0,0,1,0,.5l-1.5.9a.64.64,0,0,1-.6,0l-1.5-.9C107.92,98.6,107.92,98.3,108.12,98.2Z"/><path class="cls-56" d="M111.22,99.9l1.5-.9a.64.64,0,0,1,.6,0l1.5.8a.28.28,0,0,1,0,.5l-1.5.9a.64.64,0,0,1-.6,0l-1.5-.9C111,100.3,111,100,111.22,99.9Z"/><path class="cls-56" d="M75.22,83l1.5-.9a.64.64,0,0,1,.6,0l1.5.8a.28.28,0,0,1,0,.5l-1.5.9a.64.64,0,0,1-.6,0l-1.5-.9C75,83.4,75,83.1,75.22,83Z"/><path class="cls-56" d="M78.62,84.9l1.5-.9a.64.64,0,0,1,.6,0l1.5.8a.28.28,0,0,1,0,.5l-1.5.9a.64.64,0,0,1-.6,0l-1.5-.9C78.42,85.3,78.42,85,78.62,84.9Z"/><path class="cls-56" d="M81.92,86.7l1.5-.9a.64.64,0,0,1,.6,0l1.5.8a.28.28,0,0,1,0,.5L84,88a.64.64,0,0,1-.6,0l-1.5-.9C81.72,87.1,81.72,86.8,81.92,86.7Z"/><path class="cls-56" d="M85.32,88.6l1.5-.9a.64.64,0,0,1,.6,0l1.5.8a.28.28,0,0,1,0,.5l-1.5.9a.64.64,0,0,1-.6,0l-1.5-.9C85.12,89,85.12,88.7,85.32,88.6Z"/><path class="cls-56" d="M88.42,90.4l1.5-.9a.64.64,0,0,1,.6,0l1.5.8a.28.28,0,0,1,0,.5l-1.5.9a.64.64,0,0,1-.6,0l-1.5-.9C88.22,90.8,88.22,90.5,88.42,90.4Z"/><path class="cls-56" d="M91.52,92.3l1.5-.9a.64.64,0,0,1,.6,0l1.5.8a.28.28,0,0,1,0,.5l-1.5.9a.64.64,0,0,1-.6,0l-1.5-.9C91.32,92.8,91.32,92.5,91.52,92.3Z"/><path class="cls-56" d="M94.82,94.2l1.5-.9a.64.64,0,0,1,.6,0l1.5.8a.28.28,0,0,1,0,.5l-1.5.9a.64.64,0,0,1-.6,0l-1.5-.9C94.62,94.6,94.62,94.3,94.82,94.2Z"/><path class="cls-56" d="M98.12,96l1.5-.9a.64.64,0,0,1,.6,0l1.5.8a.28.28,0,0,1,0,.5l-1.5.9a.64.64,0,0,1-.6,0l-1.5-.9C97.92,96.4,97.92,96.1,98.12,96Z"/><path class="cls-56" d="M101.32,98l1.5-.9a.64.64,0,0,1,.6,0l1.5.8a.28.28,0,0,1,0,.5l-1.5.9a.64.64,0,0,1-.6,0l-1.5-.9C101,98.4,101,98.1,101.32,98Z"/><path class="cls-56" d="M104.72,100l1.5-.9a.64.64,0,0,1,.6,0l1.5.8a.28.28,0,0,1,0,.5l-1.5.9a.64.64,0,0,1-.6,0l-1.5-.9C104.52,100.4,104.52,100.1,104.72,100Z"/><path class="cls-56" d="M107.92,101.7l1.5-.9a.64.64,0,0,1,.6,0l1.5.8a.28.28,0,0,1,0,.5l-1.5.9a.64.64,0,0,1-.6,0l-1.5-.8A.28.28,0,0,1,107.92,101.7Z"/><path class="cls-56" d="M71.92,84.8l1.5-.9a.64.64,0,0,1,.6,0l1.5.8a.28.28,0,0,1,0,.5l-1.5.9a.64.64,0,0,1-.6,0l-1.5-.9C71.72,85.2,71.72,84.9,71.92,84.8Z"/><path class="cls-56" d="M75.32,86.7l1.5-.9a.64.64,0,0,1,.6,0l1.5.8a.28.28,0,0,1,0,.5l-1.5.9a.64.64,0,0,1-.6,0l-1.5-.9C75.12,87.1,75.12,86.8,75.32,86.7Z"/><path class="cls-56" d="M78.52,88.5l1.5-.9a.64.64,0,0,1,.6,0l1.5.8a.28.28,0,0,1,0,.5l-1.5.9a.64.64,0,0,1-.6,0l-1.5-.9C78.32,89,78.32,88.7,78.52,88.5Z"/><path class="cls-56" d="M82,90.4l1.5-.9a.64.64,0,0,1,.6,0l1.5.8a.28.28,0,0,1,0,.5l-1.5.9a.64.64,0,0,1-.6,0L82,90.8C81.82,90.9,81.82,90.6,82,90.4Z"/><path class="cls-56" d="M85.32,92.4l1.5-.9a.64.64,0,0,1,.6,0L95,95.9a.28.28,0,0,1,0,.5l-1.5.9a.64.64,0,0,1-.6,0l-7.7-4.4A.35.35,0,0,1,85.32,92.4Z"/><path class="cls-56" d="M94.72,97.8l1.5-.9a.64.64,0,0,1,.6,0l1.5.8a.28.28,0,0,1,0,.5l-1.4,1a.64.64,0,0,1-.6,0l-1.5-.9C94.52,98.2,94.52,97.9,94.72,97.8Z"/><path class="cls-56" d="M97.92,99.8l1.5-.9a.64.64,0,0,1,.6,0l1.5.8a.28.28,0,0,1,0,.5l-1.5.9a.64.64,0,0,1-.6,0l-1.5-.9C97.72,100.2,97.72,99.9,97.92,99.8Z"/><path class="cls-56" d="M101.42,101.8l1.5-.9a.64.64,0,0,1,.6,0l1.5.8a.28.28,0,0,1,0,.5l-1.5.9a.64.64,0,0,1-.6,0l-1.5-.9C101.22,102.2,101.22,101.9,101.42,101.8Z"/><path class="cls-56" d="M104.52,103.5l1.5-.9a.64.64,0,0,1,.6,0l1.5.8a.28.28,0,0,1,0,.5l-1.5.9a.64.64,0,0,1-.6,0l-1.5-.9C104.32,103.9,104.32,103.6,104.52,103.5Z"/><polygon class="cls-57" points="97.42 53.7 113.22 62.9 113.22 63.9 97.42 54.8 97.42 53.7"/><polygon class="cls-3" points="93.72 54.6 98.22 57.2 98.22 58.3 93.72 55.6 93.72 54.6"/><polygon class="cls-3" points="99.02 57.6 105.22 61.2 105.22 62.3 99.02 58.7 99.02 57.6"/><polygon class="cls-57" points="108.92 66.4 122.42 74.2 122.42 75.2 108.92 67.5 108.92 66.4"/><polygon class="cls-3" points="103.92 63.5 107.52 65.6 107.52 66.6 103.92 64.6 103.92 63.5"/><polygon class="cls-57" points="91.02 56.1 102.32 62.6 102.32 63.6 91.02 57.1 91.02 56.1"/><polygon class="cls-57" points="99.32 63.9 110.32 70.3 110.32 71.4 99.32 65 99.32 63.9"/><polygon class="cls-3" points="96.22 62.1 98.62 63.5 98.62 64.6 96.22 63.1 96.22 62.1"/><polygon class="cls-57" points="100.62 67.6 120.02 78.8 120.02 79.9 100.62 68.7 100.62 67.6"/><polygon class="cls-57" points="92.52 63 99.72 67.1 99.72 68.2 92.52 64 92.52 63"/><polygon class="cls-57" points="104.52 72.9 122.42 83.2 122.42 84.3 104.52 74 104.52 72.9"/><polygon class="cls-3" points="96.12 68.1 103.52 72.4 103.52 73.4 96.12 69.1 96.12 68.1"/><polygon class="cls-3" points="91.02 65.1 95.42 67.6 95.42 68.7 91.02 66.1 91.02 65.1"/><polygon class="cls-3" points="99.02 72.7 101.52 74.2 101.52 75.2 99.02 73.8 99.02 72.7"/><polygon class="cls-57" points="95.82 70.8 98.22 72.2 98.22 73.3 95.82 71.9 95.82 70.8"/><polygon class="cls-57" points="105.32 79.3 122.42 89.2 122.42 90.3 105.32 80.4 105.32 79.3"/><polygon class="cls-57" points="97.62 74.9 103.12 78.1 103.12 79.1 97.62 76 97.62 74.9"/><polygon class="cls-3" points="91.02 71.1 93.82 72.7 93.82 73.8 91.02 72.2 91.02 71.1"/><path class="cls-10" d="M48.42,79.7v-.4l19.4-11.4a1.29,1.29,0,0,1,1.2-.1l10.2,5.8c.1.1.2.1.2.2l.1.1a.87.87,0,0,1-.4,1.2l-19,11a1.48,1.48,0,0,1-1.3,0l-9.7-5.6A.76.76,0,0,1,48.42,79.7Z"/><path class="cls-11" d="M48.42,79.7v-.4L67.72,68a1.29,1.29,0,0,1,1.2-.1L79,73.7c.1.1.2.1.2.2l.1.1a.87.87,0,0,1-.4,1.2L60,86.2a1.48,1.48,0,0,1-1.3,0L49,80.6A1.07,1.07,0,0,1,48.42,79.7Z"/><path class="cls-12" d="M48.52,79.6v-.4l19.2-11.3a1.11,1.11,0,0,1,1.1-.1l10.1,5.8c.1.1.2.1.2.2l.1.1a.87.87,0,0,1-.4,1.2L59.92,86a1.48,1.48,0,0,1-1.3,0l-9.7-5.6C48.72,80.4,48.52,80,48.52,79.6Z"/><path class="cls-13" d="M48.52,79.6v-.4l19.2-11.3a1.11,1.11,0,0,1,1.1-.1l10.1,5.8c.1.1.2.1.2.2l.1.1a.87.87,0,0,1-.4,1.2L60,86a1.48,1.48,0,0,1-1.3,0l-9.6-5.5A1,1,0,0,1,48.52,79.6Z"/><path class="cls-14" d="M48.52,79.6v-.4L67.62,68a1.11,1.11,0,0,1,1.1-.1l10,5.8c.1.1.2.1.2.2l.1.1a.87.87,0,0,1-.4,1.2L59.92,86a1.48,1.48,0,0,1-1.3,0L49,80.5A1.05,1.05,0,0,1,48.52,79.6Z"/><path class="cls-15" d="M48.62,79.6v-.4l19-11.2a1.11,1.11,0,0,1,1.1-.1l10,5.7c.1.1.2.1.2.2l.1.1a.87.87,0,0,1-.4,1.2L59.92,85.9a1.48,1.48,0,0,1-1.3,0L49,80.4A1,1,0,0,1,48.62,79.6Z"/><path class="cls-16" d="M48.62,79.5v-.3l19-11.1a1.11,1.11,0,0,1,1.1-.1l10,5.7c.1.1.2.1.2.2l.1.1a.87.87,0,0,1-.4,1.2L60,85.9a1.48,1.48,0,0,1-1.3,0l-9.5-5.5A1,1,0,0,1,48.62,79.5Z"/><path class="cls-17" d="M48.72,79.5v-.4L67.62,68a1.11,1.11,0,0,1,1.1-.1l9.9,5.7c.1.1.2.1.2.2l.1.1a.87.87,0,0,1-.4,1.2L60,85.8a1.48,1.48,0,0,1-1.3,0l-9.5-5.5A.79.79,0,0,1,48.72,79.5Z"/><path class="cls-18" d="M48.72,79.5v-.4L67.52,68a1.11,1.11,0,0,1,1.1-.1l9.9,5.7c.1.1.2.1.2.2l.1.1a.87.87,0,0,1-.4,1.2L59.92,85.8a1.48,1.48,0,0,1-1.3,0l-9.5-5.4A1.49,1.49,0,0,1,48.72,79.5Z"/><path class="cls-19" d="M48.82,79.4V79l18.8-11a1.11,1.11,0,0,1,1.1-.1l9.8,5.7c.1.1.2.1.2.2l.1.1a1,1,0,0,1-.4,1.2L60,85.7a1.48,1.48,0,0,1-1.3,0l-9.4-5.4A.94.94,0,0,1,48.82,79.4Z"/><path class="cls-20" d="M48.82,79.4V79l18.7-11a1.11,1.11,0,0,1,1.1-.1l9.8,5.6c.1.1.2.1.2.2l.1.1a1,1,0,0,1-.4,1.2L60,85.6a1.48,1.48,0,0,1-1.3,0l-9.4-5.4A.79.79,0,0,1,48.82,79.4Z"/><path class="cls-21" d="M48.92,79.4v-.3l18.6-10.9a1.1,1.1,0,0,1,1.1-.1l9.8,5.6c.1.1.2.1.2.2l.1.1a1,1,0,0,1-.4,1.2L60,85.8a1.48,1.48,0,0,1-1.3,0l-9.4-5.4A1.78,1.78,0,0,1,48.92,79.4Z"/><path class="cls-22" d="M48.92,79.4v-.3l18.6-10.9a1.1,1.1,0,0,1,1.1-.1l9.7,5.6c.1.1.2.1.2.2l.1.1a1,1,0,0,1-.4,1.2L60,85.7a1.48,1.48,0,0,1-1.3,0l-9.3-5.4A1.19,1.19,0,0,1,48.92,79.4Z"/><path class="cls-23" d="M48.92,79.3V79l18.5-10.9a1.1,1.1,0,0,1,1.1-.1l9.7,5.6c.1.1.2.1.2.2l.1.1a1,1,0,0,1-.4,1.2L59.92,85.6a1.48,1.48,0,0,1-1.3,0l-9.3-5.3A1.78,1.78,0,0,1,48.92,79.3Z"/><path class="cls-24" d="M49,79.3V79l18.4-10.8a1.1,1.1,0,0,1,1.1-.1l9.7,5.6c.1.1.2.1.2.2l.1.1a1,1,0,0,1-.4,1.2L60,85.6a1.48,1.48,0,0,1-1.3,0l-9.3-5.3A1.78,1.78,0,0,1,49,79.3Z"/><path class="cls-25" d="M49,79.3V79l18.4-10.8a1.1,1.1,0,0,1,1.1-.1l9.6,5.5c.1.1.2.1.2.2l.1.1a1,1,0,0,1-.4,1.2L60,85.5a1.48,1.48,0,0,1-1.3,0l-9.2-5.3A1.19,1.19,0,0,1,49,79.3Z"/><path class="cls-26" d="M49.12,79.2v-.3l18.3-10.7a1.07,1.07,0,0,1,1.1-.1l9.6,5.5c.1.1.2.1.2.2l.1.1a1,1,0,0,1-.4,1.2L60,85.5a1.28,1.28,0,0,1-1.2,0l-9.2-5.3A1.39,1.39,0,0,1,49.12,79.2Z"/><path class="cls-27" d="M49.12,79.2v-.3l18.3-10.7a1.07,1.07,0,0,1,1.1-.1l9.6,5.5c.1.1.2.1.2.2l.1.1a1,1,0,0,1-.4,1.2L60.12,85.4a1.28,1.28,0,0,1-1.2,0l-9.2-5.3A1,1,0,0,1,49.12,79.2Z"/><path class="cls-28" d="M49.22,79.2v-.3l18.1-10.7a1.07,1.07,0,0,1,1.1-.1l9.5,5.5c.1.1.2.1.2.2l.1.1a.84.84,0,0,1-.4,1.1L60,85.3a1.27,1.27,0,0,1-1.2,0L49.72,80A.89.89,0,0,1,49.22,79.2Z"/><path class="cls-29" d="M49.22,79.2v-.3l18.1-10.7a1.07,1.07,0,0,1,1.1-.1l9.5,5.5c.1.1.2.1.2.2l.1.1a.84.84,0,0,1-.4,1.1L60,85.3a1.27,1.27,0,0,1-1.2,0l-9.1-5.2A1.38,1.38,0,0,1,49.22,79.2Z"/><path class="cls-30" d="M49.32,79.1v-.3l18-10.6a1.07,1.07,0,0,1,1.1-.1l9.5,5.4c.1.1.2.1.2.2l.1.1a.91.91,0,0,1-.3,1.1L60,85.2a1.28,1.28,0,0,1-1.2,0L49.72,80A1.27,1.27,0,0,1,49.32,79.1Z"/><path class="cls-31" d="M49.32,79.1v-.3l18-10.6a1.07,1.07,0,0,1,1.1-.1l9.4,5.4c.1.1.2.1.2.2l.1.1a.91.91,0,0,1-.3,1.1L60.12,85.2a1.28,1.28,0,0,1-1.2,0l-9-5.2A1,1,0,0,1,49.32,79.1Z"/><path class="cls-32" d="M49.42,79.1v-.3l17.8-10.6a1.07,1.07,0,0,1,1.1-.1l9.4,5.4c.1.1.2.1.2.2l.1.1a.91.91,0,0,1-.3,1.1L60.12,85a1.27,1.27,0,0,1-1.2,0l-9-5.2C49.52,79.8,49.42,79.4,49.42,79.1Z"/><path class="cls-33" d="M49.42,79.1v-.3l17.8-10.6a1.07,1.07,0,0,1,1.1-.1l9.4,5.4c.1.1.2.1.2.2l.1.1a.91.91,0,0,1-.3,1.1L60.22,85A1.28,1.28,0,0,1,59,85l-9-5.2A.73.73,0,0,1,49.42,79.1Z"/><path class="cls-34" d="M49.42,79v-.3l17.8-10.4a1.07,1.07,0,0,1,1.1-.1l9.3,5.4c.1.1.2.1.2.2l.1.1a.91.91,0,0,1-.3,1.1L60.22,85.1a1.28,1.28,0,0,1-1.2,0L50.12,80C49.62,79.7,49.42,79.4,49.42,79Z"/><path class="cls-35" d="M49.52,79v-.3l17.7-10.4a1.07,1.07,0,0,1,1.1-.1l9.3,5.3c.1.1.2.1.2.2l.1.1a.91.91,0,0,1-.3,1.1l-17.4,10a1.27,1.27,0,0,1-1.2,0l-8.9-5.1A.84.84,0,0,1,49.52,79Z"/><path class="cls-36" d="M49.52,79v-.3l17.6-10.4a1.07,1.07,0,0,1,1.1-.1l9.3,5.3c.1.1.2.1.2.2l.1.1a.91.91,0,0,1-.3,1.1l-17.3,10a1.27,1.27,0,0,1-1.2,0l-8.9-5.1A.94.94,0,0,1,49.52,79Z"/><path class="cls-37" d="M49.62,78.9v-.3l17.6-10.3a.92.92,0,0,1,1-.1l9.2,5.3c.1.1.2.1.2.2l.1.1a.91.91,0,0,1-.3,1.1l-17.2,9.9a1.27,1.27,0,0,1-1.2,0l-8.8-5.1A.76.76,0,0,1,49.62,78.9Z"/><path class="cls-38" d="M49.62,78.9v-.3l17.5-10.3a.92.92,0,0,1,1-.1l9.2,5.3c.1.1.2.1.2.2l.1.1a.91.91,0,0,1-.3,1.1l-17.2,9.9a1.27,1.27,0,0,1-1.2,0l-8.8-5.1A.79.79,0,0,1,49.62,78.9Z"/><path class="cls-39" d="M49.72,78.9v-.3l17.4-10.2a.92.92,0,0,1,1-.1l9.2,5.3c.1.1.2.1.2.2l.1.1a.91.91,0,0,1-.3,1.1l-17.1,9.9a1.27,1.27,0,0,1-1.2,0l-8.8-5A1.35,1.35,0,0,1,49.72,78.9Z"/><path class="cls-40" d="M49.72,78.9v-.3l17.4-10.2a.92.92,0,0,1,1-.1l9.1,5.2a.22.22,0,0,1,.2.2l.1.1a.91.91,0,0,1-.3,1.1l-17,9.8a1.28,1.28,0,0,1-1.2,0l-8.7-5A.94.94,0,0,1,49.72,78.9Z"/><path class="cls-41" d="M49.82,78.8v-.3l17.3-10.2a.92.92,0,0,1,1-.1l9.1,5.2a.22.22,0,0,1,.2.2l.1.1a.91.91,0,0,1-.3,1.1l-17,9.8a1.28,1.28,0,0,1-1.2,0l-8.7-5C49.92,79.5,49.82,79.2,49.82,78.8Z"/><path class="cls-42" d="M49.82,78.8v-.3L67,68.4a.92.92,0,0,1,1-.1l9,5.2a.22.22,0,0,1,.2.2l.1.1a.91.91,0,0,1-.3,1.1l-16.9,9.8a1.28,1.28,0,0,1-1.2,0l-8.7-5A1.49,1.49,0,0,1,49.82,78.8Z"/><path class="cls-43" d="M49.82,78.8v-.3L67,68.4a.92.92,0,0,1,1-.1l9,5.2a.22.22,0,0,1,.2.2l.1.1a.91.91,0,0,1-.3,1.1l-16.8,9.7a1.27,1.27,0,0,1-1.2,0l-8.6-5A.94.94,0,0,1,49.82,78.8Z"/><path class="cls-44" d="M49.92,78.7v-.3L67,68.4a.92.92,0,0,1,1-.1l9,5.2a.22.22,0,0,1,.2.2l.1.1a.91.91,0,0,1-.3,1.1l-16.8,9.7a1.27,1.27,0,0,1-1.2,0l-8.6-4.9A1.39,1.39,0,0,1,49.92,78.7Z"/><path class="cls-45" d="M49.92,78.7v-.3l17-10a.92.92,0,0,1,1-.1l8.9,5.1a.22.22,0,0,1,.2.2v.1a.91.91,0,0,1-.3,1.1L60,84.4a1.27,1.27,0,0,1-1.2,0l-8.6-4.9A1.21,1.21,0,0,1,49.92,78.7Z"/><path class="cls-46" d="M50,78.7v-.3l17-10a.92.92,0,0,1,1-.1l8.9,5.1a.22.22,0,0,1,.2.2v.1a.91.91,0,0,1-.3,1.1l-16.7,9.6a1.27,1.27,0,0,1-1.2,0l-8.5-4.9A1.23,1.23,0,0,1,50,78.7Z"/><path class="cls-47" d="M50,78.7v-.3l16.9-10a.92.92,0,0,1,1-.1l8.9,5.1a.22.22,0,0,1,.2.2v.1a.91.91,0,0,1-.3,1.1l-16.6,9.6a1.27,1.27,0,0,1-1.2,0l-8.5-4.9A1.23,1.23,0,0,1,50,78.7Z"/><path class="cls-48" d="M50.12,78.6v-.3l16.8-9.9a.92.92,0,0,1,1-.1l8.8,5.1a.22.22,0,0,1,.2.2v.1a.91.91,0,0,1-.3,1.1l-16.5,9.5a1.08,1.08,0,0,1-1.1,0l-8.5-4.9C50.22,79.3,50.12,79,50.12,78.6Z"/><path class="cls-49" d="M50.12,78.6v-.3l16.8-9.9a.92.92,0,0,1,1-.1l8.8,5.1a.22.22,0,0,1,.2.2v.1a1,1,0,0,1-.3,1.1l-16.5,9.5a1.08,1.08,0,0,1-1.1,0l-8.4-4.8A1.38,1.38,0,0,1,50.12,78.6Z"/><path class="cls-50" d="M50.22,78.6v-.3l16.7-9.8a.92.92,0,0,1,1-.1l8.8,5a.22.22,0,0,1,.2.2v.1a1,1,0,0,1-.3,1.1l-16.5,9.4a1.08,1.08,0,0,1-1.1,0l-8.4-4.8A.91.91,0,0,1,50.22,78.6Z"/><path class="cls-3" d="M50.22,78.5v-.3l16.6-9.8a.92.92,0,0,1,1-.1l8.7,5a.22.22,0,0,1,.2.2v.1a1,1,0,0,1-.3,1.1l-16.2,9.5a1.08,1.08,0,0,1-1.1,0l-8.4-4.8A1.05,1.05,0,0,1,50.22,78.5Z"/><path class="cls-58" d="M48.72,79v-.3l18.5-10.9a1.1,1.1,0,0,1,1.1-.1L78,73.3c.1.1.2.1.2.2l.1.1a1,1,0,0,1-.4,1.2L59.82,85.2a1.48,1.48,0,0,1-1.3,0l-9.3-5.3A1.19,1.19,0,0,1,48.72,79Z"/><path class="cls-9" d="M49,78.9a.38.38,0,0,1,0-.7l18.2-10.5a1.48,1.48,0,0,1,1.3,0L78,73.2a.38.38,0,0,1,0,.7L59.82,84.4a1.48,1.48,0,0,1-1.3,0Z"/><polygon class="cls-59" points="51.22 77.6 66.22 68.9 75.82 74.4 60.82 83.1 51.22 77.6"/><path class="cls-3" d="M73.22,71.9h0l-2.6-1.5c-.1,0-.1-.1-.1-.2s.1-.1.2-.1l2.5,1.4c.1,0,.1.1.1.2S73.32,71.9,73.22,71.9Z"/><path class="cls-60" d="M54,81.5a.49.49,0,0,1,0-.9,2.2,2.2,0,0,1,1.6,0,.49.49,0,0,1,0,.9A2.2,2.2,0,0,1,54,81.5Z"/><path class="cls-61" d="M97.92,104.5h-.5a1.11,1.11,0,0,1-1.1-1.1V97.2a1.11,1.11,0,0,1,1.1-1.1h.5A1.11,1.11,0,0,1,99,97.2v6.2A1,1,0,0,1,97.92,104.5Z"/><path class="cls-62" d="M54.92,105.4a5.32,5.32,0,0,1-4.6-2.6,5.23,5.23,0,0,1,1.9-7.2l24-13.9a5.27,5.27,0,1,1,5.3,9.1l-24,13.9A5.94,5.94,0,0,1,54.92,105.4Z"/><path class="cls-63" d="M32.32,129.6,29,153.9a8.37,8.37,0,0,0,4.3,7.4l19.9,11.2a8,8,0,0,0,12-6.9V116.3c0-3.1,6.4-1,3.7-2.5L41,97.7C35.72,94.6,32.32,123.5,32.32,129.6Z"/><path class="cls-7" d="M29.62,90.6l-1.3,12.1a177.31,177.31,0,0,0-.9,17.9v9.3c-.3,2.9,1,20.7,1.6,23.5.4,1.8,40.2,12.8,47.6,11.4L72,139.7c-.1-1.8-.3-3.7-.5-5.5l1.3-14.7c.9-12.3.8-27.6-11.3-35.1-.5-.3-1-.6-1.6-.9l-12.8-7a9.57,9.57,0,0,0-9.8,0h0C32.22,79.3,30.42,84.7,29.62,90.6Z"/><path class="cls-62" d="M49.42,85.7A4.44,4.44,0,0,1,45,81.3V64.2a4.4,4.4,0,1,1,8.8,0V81.3A4.31,4.31,0,0,1,49.42,85.7Z"/><path class="cls-62" d="M52.82,80.5h-4.2a3.12,3.12,0,0,1-3.1-3.1V54.5a3.12,3.12,0,0,1,3.1-3.1H67V66.2A14.21,14.21,0,0,1,52.82,80.5Z"/><path class="cls-61" d="M65.42,51.4V66.5a14,14,0,0,1-14,14H53a14,14,0,0,0,14-14V51.4Z"/><path class="cls-3" d="M71.92,45.7c-1.1-2.2-3.6-3.7-6-2.4-1.2.6-2,.9-3.1.2-1.5-1-1.9-1.6-3.9-1.3-.8.1-1.9.8-2.7.8-1.6,0-2.7-1.3-4.6-.8a5.88,5.88,0,0,1-3.2.3,6.47,6.47,0,0,0-3.1.3c-2,.8-1.8,2.3-2.9,3.6-.9,1.1-2.3.4-3.4,1.4a3.06,3.06,0,0,0-.7,3.6c.3.6.7,1.2.5,1.7s-.6.6-.9.9c-1.1,1.1-.2,3,.6,4.4a1.4,1.4,0,0,1,.3.9c0,.4-.3.7-.6,1.1a4,4,0,0,0,.5,5.2c.7.6,1.6,1.1,1.7,1.9a2.23,2.23,0,0,1-.3,1.4,4.36,4.36,0,0,0,2.2,4.8c2,1,.2,4.6,3.2,4.9,2.4.2,4.6-2.7,5.1-4.7-.1.3,1.5-.5,1.7-.7.5-.5.5-1.3.7-2a16.89,16.89,0,0,0,.8-3.9c0-.5-.1-6.1.5-6.1a11,11,0,0,0,3.1-.4c2.3-.9,1.4-2.4,2.2-4.1.4-.8,1.5-1,1.9-1.8a5.19,5.19,0,0,0,.3-3c2.1.4,4.7.9,6.7,0,1.6-.7,4-1.9,4-3.9A4.93,4.93,0,0,0,71.92,45.7Z"/><path class="cls-64" d="M72.52,48.1c0,2-2.4,3.2-4,3.9a6.57,6.57,0,0,1-3.7.4,10.62,10.62,0,0,0,1.9-.4c1.6-.7,4-1.9,4-3.9a5.73,5.73,0,0,0-.6-2.5,5.07,5.07,0,0,0-3.3-2.8,4.71,4.71,0,0,1,5.1,2.8A5.73,5.73,0,0,1,72.52,48.1Z"/><circle class="cls-62" cx="55.92" cy="63.9" r="3.2"/><path class="cls-5" d="M67.42,119.2a18,18,0,0,0,4.9,6l.5-5.7c.2-2.2.3-4.4.3-6.7a54.77,54.77,0,0,0-.4-7L66,92.2a5,5,0,0,0-7.1-2.3,6.1,6.1,0,0,0-2.2,7.8Z"/><path class="cls-62" d="M81.72,122.5a24.52,24.52,0,0,1-2.7-.2,16.05,16.05,0,0,1-10.7-7.2L56.42,96a5.3,5.3,0,1,1,9-5.6l11.9,19.1a5.34,5.34,0,0,0,3.6,2.4,5.26,5.26,0,0,0,4.2-1l16-12.6a5.27,5.27,0,1,1,6.5,8.3l-16,12.6A17,17,0,0,1,81.72,122.5Z"/><path class="cls-61" d="M57.62,90a5.34,5.34,0,0,1,7.3,1.7l11.9,19.1a5.34,5.34,0,0,0,3.6,2.4,5.26,5.26,0,0,0,4.2-1l16-12.6c2.3-1.8,2.7-3.1.4-1.3L85,110.9a5.26,5.26,0,0,1-4.2,1,5.34,5.34,0,0,1-3.6-2.4L65.32,90.4A5.32,5.32,0,0,0,58,88.7a5.37,5.37,0,0,0-2.4,3.5A6,6,0,0,1,57.62,90Z"/><path class="cls-7" d="M65.32,111.7s-1.1-2.1-2.2-3.9l-7.2-11.5a5.88,5.88,0,1,1,10-6.2l8.6,13.5s-1.7,3.7-4.8,4.7C67.32,108.9,65.32,111.7,65.32,111.7Z"/><path class="cls-62" d="M73.62,92.1l.1-.5a1.13,1.13,0,0,1,1.3-.9l6.1,1.3a1.13,1.13,0,0,1,.9,1.3l-.1.5a1.13,1.13,0,0,1-1.3.9l-6.1-1.3A1.13,1.13,0,0,1,73.62,92.1Z"/><path class="cls-7" d="M39,223h-.3a2.15,2.15,0,0,1-1.9-2.4l10.1-81.9c.1-1.2,1.9-2,3.1-1.9s2.8,1.2,2.6,2.4L41,221.1A1.87,1.87,0,0,1,39,223Z"/><path class="cls-7" d="M1.62,200.7c-.1,0-.2,0-.2-.1a2.23,2.23,0,0,1-1.3-2.8L20.92,137c.4-1.1,2.4-1.5,3.5-1.1s2.4,1.8,2,3L4.12,199.3A2.18,2.18,0,0,1,1.62,200.7Z"/><path class="cls-7" d="M88.42,196.9a2.27,2.27,0,0,1-2.4-1.7l-12.3-40.3c-.3-1.2,1.2-2.4,2.3-2.7s3.1.4,3.3,1.5l10.9,40.5a2.1,2.1,0,0,1-1.6,2.6C88.62,196.9,88.52,196.9,88.42,196.9Z"/><g class="cls-65"><path class="cls-66" d="M24.42,135.9c-1.1-.4-3.1,0-3.5,1.1l-8.6,25.1c.5.3.9.7,1.4,1l3.1,1.8,9.6-26C26.82,137.8,25.52,136.3,24.42,135.9Z"/><path class="cls-66" d="M47.12,179.3l5.7-40.1c.1-1.2-1.4-2.3-2.6-2.4s-3,.7-3.1,1.9l-5,39.5A44.76,44.76,0,0,0,47.12,179.3Z"/></g><path class="cls-5" d="M79.42,153.8a2.29,2.29,0,0,0-1.6-1.4,15.65,15.65,0,0,1-3.9,1.5,1.47,1.47,0,0,0-.2,1.1l4.8,15.6,4.7-2.7Z"/><path class="cls-9" d="M13.22,121.4l-6.5,23.8a14.09,14.09,0,0,0,7,14.3l20,11.5a37.76,37.76,0,0,0,37.9-.1l21.3-12.4v-8.9a6,6,0,0,0-9.1-5.1L78,148.6c-7.1,4.3-18-5.5-20.7-13.3l-3-6.7a25.81,25.81,0,0,0-10.6-11.8l-5.6-3.3A17.7,17.7,0,0,0,13.22,121.4Z"/><path class="cls-67" d="M8.32,148.8l6.4-23.8a17.76,17.76,0,0,1,25.1-7.8l5.6,3.3A25.81,25.81,0,0,1,56,132.3l1.4,3.2v-.1l-3-6.7a25.81,25.81,0,0,0-10.6-11.8l-5.6-3.3a17.76,17.76,0,0,0-25.1,7.8l-6.4,23.8a14.23,14.23,0,0,0,2,9.5A16.34,16.34,0,0,1,8.32,148.8Z"/><path class="cls-7" d="M93,154.7l-21.3,12.4a38,38,0,0,1-37.9.1l-20-11.5a14.13,14.13,0,0,1-7-10.4h0a14.09,14.09,0,0,0,7,14.3l20,11.5a37.76,37.76,0,0,0,37.9-.1L93,158.6v-8.9h0Z"/><path class="cls-3" d="M116.72,46.1l-.7.6h-6l-.7-.6a9.54,9.54,0,0,1-3-6.9V36.6H120v2.3A9.43,9.43,0,0,1,116.72,46.1Z"/><path class="cls-68" d="M114.42,48.5h-3a1.58,1.58,0,0,1-1.6-1.6v-.4H116v.4A1.58,1.58,0,0,1,114.42,48.5Z"/><path class="cls-69" d="M118,33.8a11,11,0,0,0-9.7,0c-2.7,1.5-2.7,4.1,0,5.6a11,11,0,0,0,9.7,0C120.62,37.8,120.62,35.3,118,33.8Z"/><path class="cls-70" d="M113.22,10.8a12.51,12.51,0,0,0-6.8,23v2.8h0a3.48,3.48,0,0,0,2,2.7,10.8,10.8,0,0,0,9.6,0,3.48,3.48,0,0,0,2-2.7h0V33.8a12.51,12.51,0,0,0-6.8-23Z"/><path class="cls-57" d="M106.22,24.7a8.24,8.24,0,0,1,8.2-8.2c4.2,0,3.9-3.5-1.5-3.5a9.71,9.71,0,0,0-9.7,9.7C103.22,26.1,106.22,27.6,106.22,24.7Z"/><path class="cls-71" d="M118,40.5a10.8,10.8,0,0,1-9.6,0,3.27,3.27,0,0,1-2-2.7v.9a3.48,3.48,0,0,0,2,2.7,10.8,10.8,0,0,0,9.6,0,3.48,3.48,0,0,0,2-2.7h0v-.9h0A3.63,3.63,0,0,1,118,40.5Z"/><path class="cls-71" d="M118,43.2a10.8,10.8,0,0,1-9.6,0,3.9,3.9,0,0,1-1.6-1.5,13.36,13.36,0,0,0,.7,1.8,8.65,8.65,0,0,0,1,.7,10.8,10.8,0,0,0,9.6,0,5.55,5.55,0,0,0,.8-.6,6.39,6.39,0,0,0,.8-1.9A6.3,6.3,0,0,1,118,43.2Z"/><path class="cls-72" d="M113.12,9.8h0a1,1,0,0,1-1-1V1a1,1,0,0,1,1-1h0a1,1,0,0,1,1,1V8.8A1,1,0,0,1,113.12,9.8Zm8.4,1.5,4-6.8a1,1,0,1,0-1.8-1l-4,6.8a1,1,0,0,0,.4,1.4.9.9,0,0,0,.5.1A1.05,1.05,0,0,0,121.52,11.3Zm5.1,5.8,6.8-3.9a1,1,0,1,0-1-1.8l-6.8,3.9a1,1,0,0,0-.4,1.4,1.05,1.05,0,0,0,.9.5C126.32,17.3,126.42,17.2,126.62,17.1Zm-25.4-.4a1,1,0,0,0-.4-1.4l-6.7-4a1,1,0,0,0-1,1.8l6.7,4a.9.9,0,0,0,.5.1A1.19,1.19,0,0,0,101.22,16.7Zm5.1-5.1a1,1,0,0,0,.4-1.4l-3.8-6.8a1,1,0,0,0-1.8,1l3.8,6.8a1.05,1.05,0,0,0,.9.5A.75.75,0,0,0,106.32,11.6Z"/><polygon class="cls-73" points="192.32 132.2 209.22 122.5 209.22 122.2 184.92 109.1 172.12 120.5 192.32 132.2"/><polygon class="cls-3" points="192.32 132 209.22 122.2 184.92 108.8 172.12 120.2 192.32 132"/><polygon class="cls-60" points="191.62 131.8 208.52 122 208.72 118.9 184.22 108.4 171.42 119.8 191.62 131.8"/><polygon class="cls-73" points="182.22 103.2 209.22 118.6 209.22 118.8 192.32 128.6 165.22 112.9 182.22 103.2"/><polygon class="cls-7" points="182.22 102.9 209.22 118.6 192.32 128.3 165.22 112.7 182.22 102.9"/><polygon class="cls-57" points="185.72 106.6 193.32 111 179.72 118.8 172.12 114.4 185.72 106.6"/><polygon class="cls-73" points="165.52 112.8 165.52 116.6 192.32 132.2 192.52 132.1 192.52 128.4 165.52 112.8"/><polygon class="cls-7" points="165.22 112.7 165.22 116.5 192.32 132.2 192.32 128.3 165.22 112.7"/><polygon class="cls-55" points="188.02 125.9 202.22 117.7 202.22 117.5 181.72 106.5 171.02 116 188.02 125.9"/><polygon class="cls-74" points="188.02 125.7 202.22 117.5 181.72 106.3 171.02 115.8 188.02 125.7"/><polygon class="cls-57" points="187.42 125.5 201.62 117.3 201.72 114.7 181.22 105.9 170.42 115.5 187.42 125.5"/><polygon class="cls-55" points="179.42 101.5 202.22 114.4 202.22 114.6 188.02 122.8 165.22 109.7 179.42 101.5"/><polygon class="cls-56" points="179.42 101.3 202.22 114.4 188.02 122.6 165.22 109.5 179.42 101.3"/><polygon class="cls-57" points="182.42 104.4 188.82 108 177.42 114.6 171.02 111 182.42 104.4"/><polygon class="cls-55" points="165.42 109.6 165.42 112.8 188.02 125.9 188.22 125.8 188.22 122.7 165.42 109.6"/><polygon class="cls-75" points="165.22 109.5 165.22 112.7 188.02 125.9 188.02 122.6 165.22 109.5"/><path class="cls-5" d="M87,41.4a.8.8,0,0,0-1.1.3.85.85,0,0,0-.7.8V58l6.4,3.7a2.36,2.36,0,0,0,2.1.3h.1a.1.1,0,0,0,.1-.1l1.1-.5a1.34,1.34,0,0,0,.8-1.3V46.5Z"/><path class="cls-5" d="M127.82,65l-11.5-6.6V73.2a6.08,6.08,0,0,0,2.7,4.7l9.7,5.6v-17A1.65,1.65,0,0,0,127.82,65Z"/><path class="cls-57" d="M182,73.6V72.4l3.3,1.9v4c0,.7-.2,1.2-.6,1.3a2.24,2.24,0,0,1-1.5-.3,5.46,5.46,0,0,1-2-2l.7-.6a5.12,5.12,0,0,0,1.2,1.3,1.09,1.09,0,0,0,.5.1.85.85,0,0,0,.2-.6V74.6Z"/><path class="cls-57" d="M188.22,77.2c-.1,0-.2.1-.2.3a1.42,1.42,0,0,0,.2.6,14.67,14.67,0,0,0,1.1,1,9.16,9.16,0,0,1,1.4,1.4,3,3,0,0,1,.5,1.5.92.92,0,0,1-.6,1,2.44,2.44,0,0,1-1.7-.4,8.29,8.29,0,0,1-2.7-2.6l.8-.5a5.61,5.61,0,0,0,1.9,1.9,3.93,3.93,0,0,0,.6.2c.1,0,.2-.1.2-.3a1.42,1.42,0,0,0-.2-.6l-.9-.9a8,8,0,0,1-1.6-1.6,3,3,0,0,1-.5-1.6c0-.6.2-.9.6-1a2.69,2.69,0,0,1,1.6.4,7.7,7.7,0,0,1,1.3.9,12,12,0,0,1,1.1,1.2l-.7.6a6.37,6.37,0,0,0-1.7-1.6C188.62,77.2,188.42,77.1,188.22,77.2Z"/><path class="cls-76" d="M132.32,119.3c3.5-2,3.5-5.3,0-7.3a14.19,14.19,0,0,0-12.7,0c-3.5,2-3.5,5.3,0,7.3A14.19,14.19,0,0,0,132.32,119.3Z"/><path class="cls-7" d="M120.22,114.3a7.65,7.65,0,0,1-3.4-6.3v-2.3a1.65,1.65,0,0,1,.9-1.5,1.91,1.91,0,0,1,1.8,0l1.6.9-.8,1.4-1.6-.9h-.1a.1.1,0,0,0-.1.1V108a6.11,6.11,0,0,0,2.6,5Z"/><path class="cls-77" d="M131.72,103.9h-11.6V115h0a2.87,2.87,0,0,0,1.7,2.3,8.46,8.46,0,0,0,4,1h.2a7.67,7.67,0,0,0,4-1,3,3,0,0,0,1.7-2.4h0Z"/><path class="cls-2" d="M130,106.2c2.3-1.3,2.3-3.4,0-4.7a9.11,9.11,0,0,0-8.2,0c-2.2,1.3-2.2,3.4,0,4.7A9.11,9.11,0,0,0,130,106.2Z"/><path class="cls-78" d="M129.72,106c2.1-1.2,2.1-3.1,0-4.3a8.26,8.26,0,0,0-7.5,0c-2.1,1.2-2.1,3.1,0,4.3A8.26,8.26,0,0,0,129.72,106Z"/><path class="cls-79" d="M129.32,106.3c1.9-.9,1.9-2.3,0-3.2a8.9,8.9,0,0,0-6.8,0c-1.9.9-1.9,2.3,0,3.2A8.9,8.9,0,0,0,129.32,106.3Z"/><path class="cls-80" d="M130.72,105a2.87,2.87,0,0,0-1.3-.9,13.07,13.07,0,0,0-6.8,0c-.7.2-1.2.5-1.3.9a2.57,2.57,0,0,0,1.3,1.2,8.9,8.9,0,0,0,6.8,0A2.22,2.22,0,0,0,130.72,105Z"/><path class="cls-10" d="M145.32,113.8a2.35,2.35,0,0,0-2.3,0l-32.7,18.9c-.6.4-.6,1,0,1.3l21.1,12.2a2.35,2.35,0,0,0,2.3,0l32.6-18.9c.6-.4.6-1,0-1.3Z"/><path class="cls-11" d="M145.32,113.8a2.35,2.35,0,0,0-2.3,0l-32.5,18.8c-.6.4-.6.9,0,1.3l21,12.1a2.35,2.35,0,0,0,2.3,0l32.5-18.8c.6-.4.6-.9,0-1.3Z"/><path class="cls-12" d="M145.22,113.8a2.17,2.17,0,0,0-2.2,0l-32.4,18.7c-.6.4-.6.9,0,1.3l20.9,12.1a2.17,2.17,0,0,0,2.2,0L166,127.1c.6-.4.6-.9,0-1.3Z"/><path class="cls-13" d="M145.22,113.9a2.17,2.17,0,0,0-2.2,0l-32.2,18.6c-.6.4-.6.9,0,1.3l20.8,12a2.17,2.17,0,0,0,2.2,0L166,127.1c.6-.4.6-.9,0-1.3Z"/><path class="cls-14" d="M145.22,113.9a2.17,2.17,0,0,0-2.2,0l-32.1,18.5c-.6.4-.6.9,0,1.3l20.7,12a2.17,2.17,0,0,0,2.2,0l32-18.6c.6-.4.6-.9,0-1.3Z"/><path class="cls-15" d="M145.12,113.9a2.17,2.17,0,0,0-2.2,0L111,132.3c-.6.4-.6.9,0,1.3l20.6,11.9a2.17,2.17,0,0,0,2.2,0l31.9-18.5c.6-.4.6-.9,0-1.3Z"/><path class="cls-16" d="M145.12,114a2.17,2.17,0,0,0-2.2,0l-31.8,18.4c-.6.4-.6.9,0,1.3l20.6,11.9a2.44,2.44,0,0,0,2.2,0l31.7-18.4c.6-.4.6-.9,0-1.3Z"/><path class="cls-17" d="M145.12,114a2.8,2.8,0,0,0-2.2,0l-31.7,18.3c-.6.3-.6.9,0,1.3l20.5,11.8a2.8,2.8,0,0,0,2.2,0l31.6-18.3c.6-.4.6-.9,0-1.3Z"/><path class="cls-18" d="M145,114.1a2.8,2.8,0,0,0-2.2,0l-31.5,18.2c-.6.3-.6.9,0,1.3l20.4,11.8a2.8,2.8,0,0,0,2.2,0l31.4-18.2c.6-.3.6-.9,0-1.3Z"/><path class="cls-19" d="M145,114.1a2.8,2.8,0,0,0-2.2,0l-31.3,18.1c-.6.3-.6.9,0,1.3l20.3,11.7a2.8,2.8,0,0,0,2.2,0l31.3-18.1c.6-.3.6-.9,0-1.3Z"/><path class="cls-20" d="M145,114.1a2.8,2.8,0,0,0-2.2,0l-31.2,18c-.6.3-.6.9,0,1.3l20.2,11.6a2.8,2.8,0,0,0,2.2,0l31.1-18.1c.6-.3.6-.9,0-1.3Z"/><path class="cls-21" d="M144.92,114.2a2.8,2.8,0,0,0-2.2,0l-31.1,17.9a.63.63,0,0,0,0,1.2l20.1,11.6a2.8,2.8,0,0,0,2.2,0l31-18a.62.62,0,0,0,0-1.2Z"/><path class="cls-22" d="M144.92,114.2a2.56,2.56,0,0,0-2.1,0L111.92,132a.63.63,0,0,0,0,1.2l20,11.5a2.56,2.56,0,0,0,2.1,0l30.8-17.9a.63.63,0,0,0,0-1.2Z"/><path class="cls-23" d="M144.92,114.3a2.56,2.56,0,0,0-2.1,0L112,132.1a.63.63,0,0,0,0,1.2l19.9,11.5a2.56,2.56,0,0,0,2.1,0l30.7-17.8a.63.63,0,0,0,0-1.2Z"/><path class="cls-24" d="M144.82,114.3a2.56,2.56,0,0,0-2.1,0L112.12,132a.62.62,0,0,0,0,1.2l19.8,11.4a2.56,2.56,0,0,0,2.1,0l30.5-17.7a.63.63,0,0,0,0-1.2Z"/><path class="cls-25" d="M144.82,114.3a2.56,2.56,0,0,0-2.1,0l-30.5,17.6a.62.62,0,0,0,0,1.2l19.7,11.4a2.56,2.56,0,0,0,2.1,0l30.4-17.6a.62.62,0,0,0,0-1.2Z"/><path class="cls-26" d="M144.82,114.4a2.56,2.56,0,0,0-2.1,0l-30.3,17.5a.63.63,0,0,0,0,1.2L132,144.4a2.56,2.56,0,0,0,2.1,0l30.2-17.5a.63.63,0,0,0,0-1.2Z"/><path class="cls-27" d="M144.72,114.4a2.56,2.56,0,0,0-2.1,0l-30.2,17.4a.62.62,0,0,0,0,1.2l19.5,11.3a2.56,2.56,0,0,0,2.1,0l30.1-17.5a.63.63,0,0,0,0-1.2Z"/><path class="cls-28" d="M144.72,114.5a2.56,2.56,0,0,0-2.1,0l-30,17.3a.63.63,0,0,0,0,1.2L132,144.2a2.56,2.56,0,0,0,2.1,0L164,126.8a.63.63,0,0,0,0-1.2Z"/><path class="cls-29" d="M144.72,114.5a2.56,2.56,0,0,0-2.1,0l-29.9,17.2a.62.62,0,0,0,0,1.2L132,144a2.56,2.56,0,0,0,2.1,0l29.8-17.3a.62.62,0,0,0,0-1.2Z"/><path class="cls-30" d="M144.62,114.5a2.56,2.56,0,0,0-2.1,0l-29.6,17.2a.63.63,0,0,0,0,1.2l19.2,11.1a2.56,2.56,0,0,0,2.1,0l29.6-17.2a.63.63,0,0,0,0-1.2Z"/><path class="cls-31" d="M144.62,114.6a2.56,2.56,0,0,0-2.1,0l-29.6,17.1a.63.63,0,0,0,0,1.2l19.1,11a2.56,2.56,0,0,0,2.1,0l29.5-17.1a.63.63,0,0,0,0-1.2Z"/><path class="cls-32" d="M144.62,114.6a2.33,2.33,0,0,0-2,0l-29.4,17a.62.62,0,0,0,0,1.2l19,11a2.33,2.33,0,0,0,2,0l29.3-17a.63.63,0,0,0,0-1.2Z"/><path class="cls-33" d="M144.62,114.7a2.33,2.33,0,0,0-2,0l-29.3,16.9a.63.63,0,0,0,0,1.2l18.9,10.9a2.33,2.33,0,0,0,2,0l29.2-16.9a.63.63,0,0,0,0-1.2Z"/><path class="cls-34" d="M144.52,114.7a2.33,2.33,0,0,0-2,0l-29.1,16.8c-.6.3-.6.8,0,1.2l18.8,10.9a2.33,2.33,0,0,0,2,0l29-16.9c.6-.3.6-.8,0-1.2Z"/><path class="cls-35" d="M144.52,114.7a2.33,2.33,0,0,0-2,0l-29,16.7c-.6.3-.6.8,0,1.2l18.7,10.8a2.33,2.33,0,0,0,2,0l28.9-16.8c.6-.3.6-.8,0-1.2Z"/><path class="cls-36" d="M144.52,114.8a2.33,2.33,0,0,0-2,0l-28.8,16.6c-.6.3-.6.8,0,1.2l18.6,10.8a2.33,2.33,0,0,0,2,0l28.8-16.7c.5-.3.5-.8,0-1.2Z"/><path class="cls-37" d="M144.42,114.8a2.33,2.33,0,0,0-2,0l-28.7,16.6a.59.59,0,0,0,0,1.1l18.5,10.7a2.33,2.33,0,0,0,2,0l28.6-16.6c.5-.3.5-.8,0-1.2Z"/><path class="cls-38" d="M144.42,114.9a2.33,2.33,0,0,0-2,0l-28.5,16.4a.59.59,0,0,0,0,1.1l18.4,10.6a2.33,2.33,0,0,0,2,0l28.5-16.5a.59.59,0,0,0,0-1.1Z"/><path class="cls-39" d="M144.42,114.9a2.33,2.33,0,0,0-2,0L114,131.3a.59.59,0,0,0,0,1.1l18.3,10.6a2.33,2.33,0,0,0,2,0l28.3-16.4a.59.59,0,0,0,0-1.1Z"/><path class="cls-40" d="M144.32,114.9a2.33,2.33,0,0,0-2,0l-28.2,16.3a.59.59,0,0,0,0,1.1l18.2,10.5a2.33,2.33,0,0,0,2,0l28.2-16.3a.59.59,0,0,0,0-1.1Z"/><path class="cls-41" d="M144.32,115a2.33,2.33,0,0,0-2,0l-28,16.2a.59.59,0,0,0,0,1.1l18.2,10.5a2.12,2.12,0,0,0,1.9,0l28-16.3a.59.59,0,0,0,0-1.1Z"/><path class="cls-42" d="M144.32,115a2.12,2.12,0,0,0-1.9,0l-27.9,16.1a.59.59,0,0,0,0,1.1l18.1,10.4a2.12,2.12,0,0,0,1.9,0l27.9-16.2a.59.59,0,0,0,0-1.1Z"/><path class="cls-43" d="M144.22,115.1a2.12,2.12,0,0,0-1.9,0l-27.8,16a.59.59,0,0,0,0,1.1l18,10.4a2.12,2.12,0,0,0,1.9,0l27.7-16.1a.59.59,0,0,0,0-1.1Z"/><path class="cls-44" d="M144.22,115.1a2.12,2.12,0,0,0-1.9,0l-27.6,16a.59.59,0,0,0,0,1.1l17.9,10.3a2.12,2.12,0,0,0,1.9,0l27.6-16a.59.59,0,0,0,0-1.1Z"/><path class="cls-45" d="M144.22,115.1a2.12,2.12,0,0,0-1.9,0L114.82,131a.59.59,0,0,0,0,1.1l17.8,10.3a2.12,2.12,0,0,0,1.9,0l27.4-15.9a.59.59,0,0,0,0-1.1Z"/><path class="cls-46" d="M144.12,115.2a2.12,2.12,0,0,0-1.9,0L114.92,131a.59.59,0,0,0,0,1.1l17.7,10.2a2.12,2.12,0,0,0,1.9,0l27.3-15.8a.59.59,0,0,0,0-1.1Z"/><path class="cls-47" d="M144.12,115.2a2.12,2.12,0,0,0-1.9,0L115,130.9a.59.59,0,0,0,0,1.1l17.6,10.1a2.12,2.12,0,0,0,1.9,0l27.1-15.7a.59.59,0,0,0,0-1.1Z"/><path class="cls-48" d="M144.12,115.2a2.12,2.12,0,0,0-1.9,0l-27,15.6a.59.59,0,0,0,0,1.1l17.5,10.1a2.12,2.12,0,0,0,1.9,0l27-15.7a.59.59,0,0,0,0-1.1Z"/><path class="cls-49" d="M144,115.3a2.12,2.12,0,0,0-1.9,0l-26.9,15.5a.59.59,0,0,0,0,1.1l17.4,10a2.12,2.12,0,0,0,1.9,0l26.8-15.6a.59.59,0,0,0,0-1.1Z"/><path class="cls-50" d="M144,115.3a2.12,2.12,0,0,0-1.9,0l-26.7,15.4a.59.59,0,0,0,0,1.1l17.3,10a2.12,2.12,0,0,0,1.9,0l26.7-15.5a.59.59,0,0,0,0-1.1Z"/><path class="cls-3" d="M144,115.4a1.91,1.91,0,0,0-1.8,0l-26.6,15.4a.59.59,0,0,0,0,1.1l17.2,9.9a1.91,1.91,0,0,0,1.8,0l26.5-15.4a.59.59,0,0,0,0-1.1Z"/><path class="cls-81" d="M144.42,113.4a2.8,2.8,0,0,0-2.2,0l-31.3,17.7c-.1.1-.2.2-.2.3v.6a.71.71,0,0,0,.3.6l20.2,11.6a2.8,2.8,0,0,0,2.2,0l30.9-17.9a1.05,1.05,0,0,0,.5-.9v-.5Z"/><path class="cls-57" d="M144.42,112.7a2.8,2.8,0,0,0-2.2,0l-31.1,17.9a.63.63,0,0,0,0,1.2l20.1,11.6a2.8,2.8,0,0,0,2.2,0l31-18a.62.62,0,0,0,0-1.2Z"/><polygon class="cls-56" points="141.62 115.3 159.02 125.4 150.12 130.4 132.82 120.4 141.62 115.3"/><polygon class="cls-55" points="131.92 121.2 139.82 125.8 129.92 131.4 122.12 126.8 131.92 121.2"/><polygon class="cls-67" points="141.22 126.6 149.12 131.2 139.22 136.8 131.42 132.3 141.22 126.6"/><polygon class="cls-75" points="118.72 128.4 137.72 139.3 136.72 139.9 117.82 129 118.72 128.4"/><polygon class="cls-75" points="120.62 132 130.52 137.8 129.62 138.3 119.62 132.6 120.62 132"/><path class="cls-10" d="M137,149.1c-.6-.4-.6-.9,0-1.3l32.5-18.8a2.35,2.35,0,0,1,2.3,0l3.1,1.8c.6.4.6,1,0,1.3l-32.4,18.7a2.35,2.35,0,0,1-2.3,0Z"/><path class="cls-11" d="M137,149.1c-.6-.4-.6-.9,0-1.3l32.5-18.7a2.35,2.35,0,0,1,2.3,0l3.1,1.8c.6.4.6,1,0,1.3l-32.3,18.7a2.35,2.35,0,0,1-2.3,0Z"/><path class="cls-12" d="M137.12,149.1c-.6-.4-.6-.9,0-1.3l32.4-18.7a2.35,2.35,0,0,1,2.3,0l3,1.8c.6.4.6,1,0,1.3l-32.3,18.7a2.35,2.35,0,0,1-2.3,0Z"/><path class="cls-13" d="M137.12,149.1c-.6-.4-.6-.9,0-1.3l32.4-18.7a2.17,2.17,0,0,1,2.2,0l3,1.8c.6.4.6,1,0,1.3l-32.2,18.6a2.35,2.35,0,0,1-2.3,0Z"/><path class="cls-14" d="M137.12,149.1c-.6-.4-.6-.9,0-1.3l32.3-18.7a2.44,2.44,0,0,1,2.2,0l3,1.8c.6.4.6,1,0,1.3l-32.2,18.6a2.35,2.35,0,0,1-2.3,0Z"/><path class="cls-15" d="M137.22,149.1c-.6-.4-.6-.9,0-1.3l32.3-18.7a2.44,2.44,0,0,1,2.2,0l3,1.8c.6.4.6,1,0,1.3l-32.1,18.6a2.17,2.17,0,0,1-2.2,0Z"/><path class="cls-16" d="M137.22,149c-.6-.4-.6-.9,0-1.3l32.2-18.6a2.44,2.44,0,0,1,2.2,0l3,1.8c.6.4.6.9,0,1.3l-32.1,18.6a2.17,2.17,0,0,1-2.2,0Z"/><path class="cls-17" d="M137.22,149c-.6-.3-.6-.9,0-1.3l32.2-18.6a2.44,2.44,0,0,1,2.2,0l3,1.8c.6.4.6.9,0,1.3l-32,18.5a2.17,2.17,0,0,1-2.2,0Z"/><path class="cls-18" d="M137.32,149c-.6-.3-.6-.9,0-1.3l32.1-18.6a2.44,2.44,0,0,1,2.2,0l3,1.8c.6.4.6.9,0,1.3l-32,18.5a2.17,2.17,0,0,1-2.2,0Z"/><path class="cls-19" d="M137.32,149c-.6-.3-.6-.9,0-1.3l32.1-18.6a2.44,2.44,0,0,1,2.2,0l3,1.8c.6.4.6.9,0,1.3l-31.9,18.5a2.17,2.17,0,0,1-2.2,0Z"/><path class="cls-20" d="M137.32,149c-.6-.3-.6-.9,0-1.3l32-18.5a2.8,2.8,0,0,1,2.2,0l2.9,1.8c.6.4.6.9,0,1.3l-31.9,18.5a2.44,2.44,0,0,1-2.2,0Z"/><path class="cls-21" d="M137.42,149c-.6-.3-.6-.9,0-1.3l32-18.5a2.8,2.8,0,0,1,2.2,0l2.9,1.8c.6.4.6.9,0,1.3l-31.8,18.4a2.44,2.44,0,0,1-2.2,0Z"/><path class="cls-22" d="M137.42,148.9c-.6-.3-.6-.9,0-1.3l31.9-18.5a2.8,2.8,0,0,1,2.2,0l2.9,1.7c.6.4.6.9,0,1.3l-31.8,18.4a2.8,2.8,0,0,1-2.2,0Z"/><path class="cls-23" d="M137.52,148.9a.62.62,0,0,1,0-1.2l31.9-18.5a2.8,2.8,0,0,1,2.2,0l2.9,1.7c.6.4.6.9,0,1.3l-31.7,18.4a2.8,2.8,0,0,1-2.2,0Z"/><path class="cls-24" d="M137.52,148.9a.62.62,0,0,1,0-1.2l31.8-18.4a2.8,2.8,0,0,1,2.2,0l2.9,1.7c.6.4.6.9,0,1.3l-31.7,18.4a2.8,2.8,0,0,1-2.2,0Z"/><path class="cls-25" d="M137.52,148.9a.62.62,0,0,1,0-1.2l31.8-18.4a2.56,2.56,0,0,1,2.1,0l2.9,1.7c.6.4.6.9,0,1.3l-31.6,18.3a2.8,2.8,0,0,1-2.2,0Z"/><path class="cls-26" d="M137.62,148.9a.62.62,0,0,1,0-1.2l31.7-18.4a2.56,2.56,0,0,1,2.1,0l2.9,1.7c.6.3.6.9,0,1.3l-31.6,18.3a2.56,2.56,0,0,1-2.1,0Z"/><path class="cls-27" d="M137.62,148.9a.62.62,0,0,1,0-1.2l31.7-18.4a2.56,2.56,0,0,1,2.1,0l2.9,1.7a.63.63,0,0,1,0,1.2l-31.5,18.3a2.56,2.56,0,0,1-2.1,0Z"/><path class="cls-28" d="M137.62,148.8a.62.62,0,0,1,0-1.2l31.6-18.3a2.56,2.56,0,0,1,2.1,0l2.9,1.7a.62.62,0,0,1,0,1.2l-31.5,18.3a2.56,2.56,0,0,1-2.1,0Z"/><path class="cls-29" d="M137.72,148.8a.62.62,0,0,1,0-1.2l31.5-18.3a2.56,2.56,0,0,1,2.1,0l2.8,1.7a.63.63,0,0,1,0,1.2l-31.4,18.2a2.56,2.56,0,0,1-2.1,0Z"/><path class="cls-30" d="M137.72,148.8a.62.62,0,0,1,0-1.2l31.5-18.3a2.56,2.56,0,0,1,2.1,0l2.8,1.7a.63.63,0,0,1,0,1.2l-31.4,18.2a2.56,2.56,0,0,1-2.1,0Z"/><path class="cls-31" d="M137.72,148.8a.62.62,0,0,1,0-1.2l31.4-18.3a2.56,2.56,0,0,1,2.1,0L174,131a.63.63,0,0,1,0,1.2l-31.3,18.2a2.56,2.56,0,0,1-2.1,0Z"/><path class="cls-32" d="M137.82,148.8a.62.62,0,0,1,0-1.2l31.4-18.2a2.56,2.56,0,0,1,2.1,0l2.8,1.7a.63.63,0,0,1,0,1.2l-31.3,18.2a2.56,2.56,0,0,1-2.1,0Z"/><path class="cls-33" d="M137.82,148.8a.62.62,0,0,1,0-1.2l31.3-18.2a2.56,2.56,0,0,1,2.1,0l2.8,1.7a.63.63,0,0,1,0,1.2l-31.2,18.2a2.56,2.56,0,0,1-2.1,0Z"/><path class="cls-34" d="M137.82,148.8a.62.62,0,0,1,0-1.2l31.3-18.2a2.56,2.56,0,0,1,2.1,0l2.8,1.7a.63.63,0,0,1,0,1.2l-31.2,18.1a2.56,2.56,0,0,1-2.1,0Z"/><path class="cls-35" d="M137.92,148.7a.63.63,0,0,1,0-1.2l31.2-18.2a2.56,2.56,0,0,1,2.1,0L174,131a.63.63,0,0,1,0,1.2l-31.1,18.1a2.56,2.56,0,0,1-2.1,0Z"/><path class="cls-36" d="M137.92,148.7a.63.63,0,0,1,0-1.2l31.2-18.2a2.56,2.56,0,0,1,2.1,0L174,131a.63.63,0,0,1,0,1.2l-31.1,18.1a2.56,2.56,0,0,1-2.1,0Z"/><path class="cls-37" d="M137.92,148.7a.63.63,0,0,1,0-1.2L169,129.4a2.33,2.33,0,0,1,2,0l2.8,1.6a.63.63,0,0,1,0,1.2l-31,18.1a2.56,2.56,0,0,1-2.1,0Z"/><path class="cls-38" d="M138,148.7c-.6-.3-.6-.8,0-1.2l31.1-18.1a2.33,2.33,0,0,1,2,0l2.7,1.6a.63.63,0,0,1,0,1.2l-31,18a2.33,2.33,0,0,1-2,0Z"/><path class="cls-39" d="M138,148.7c-.6-.3-.6-.8,0-1.2l31-18.1a2.33,2.33,0,0,1,2,0l2.7,1.6a.62.62,0,0,1,0,1.2l-30.9,18a2.33,2.33,0,0,1-2,0Z"/><path class="cls-40" d="M138.12,148.7c-.6-.3-.6-.8,0-1.2l31-18.1a2.33,2.33,0,0,1,2,0l2.7,1.6c.6.3.5.9,0,1.2l-30.9,18a2.33,2.33,0,0,1-2,0Z"/><path class="cls-41" d="M138.12,148.6c-.6-.3-.6-.8,0-1.2l30.9-18a2.33,2.33,0,0,1,2,0l2.7,1.6c.6.3.5.9,0,1.2l-30.8,18a2.33,2.33,0,0,1-2,0Z"/><path class="cls-42" d="M138.12,148.6c-.6-.3-.6-.8,0-1.2l30.9-18a2.33,2.33,0,0,1,2,0l2.7,1.6a.67.67,0,0,1,0,1.2l-30.8,18a2.33,2.33,0,0,1-2,0Z"/><path class="cls-43" d="M138.22,148.6c-.6-.3-.6-.8,0-1.1l30.8-18a2.33,2.33,0,0,1,2,0l2.7,1.6a.67.67,0,0,1,0,1.2l-30.8,17.9a2.33,2.33,0,0,1-2,0Z"/><path class="cls-44" d="M138.22,148.6c-.6-.3-.6-.8,0-1.1l30.8-18a2.33,2.33,0,0,1,2,0l2.7,1.6c.5.3.5.8,0,1.2L143,150.2a2.33,2.33,0,0,1-2,0Z"/><path class="cls-45" d="M138.22,148.6a.59.59,0,0,1,0-1.1l30.7-17.9a2.33,2.33,0,0,1,2,0l2.7,1.6c.5.3.5.8,0,1.2L143,150.3a2.33,2.33,0,0,1-2,0Z"/><path class="cls-46" d="M138.32,148.6a.59.59,0,0,1,0-1.1L169,129.6a2.33,2.33,0,0,1,2,0l2.7,1.6c.5.3.5.8,0,1.2l-30.6,17.8a2.33,2.33,0,0,1-2,0Z"/><path class="cls-47" d="M138.32,148.5a.59.59,0,0,1,0-1.1l30.6-17.9a2.33,2.33,0,0,1,2,0l2.6,1.6c.5.3.5.8,0,1.2L143,150.1a2.33,2.33,0,0,1-2,0Z"/><path class="cls-48" d="M138.32,148.5a.59.59,0,0,1,0-1.1l30.6-17.9a2.33,2.33,0,0,1,2,0l2.6,1.6a.59.59,0,0,1,0,1.1L143,150a2.33,2.33,0,0,1-2,0Z"/><path class="cls-49" d="M138.42,148.5a.59.59,0,0,1,0-1.1l30.5-17.8a2.12,2.12,0,0,1,1.9,0l2.6,1.6a.59.59,0,0,1,0,1.1L143,150.1a2.33,2.33,0,0,1-2,0Z"/><path class="cls-50" d="M138.42,148.5a.59.59,0,0,1,0-1.1l30.5-17.8a2.12,2.12,0,0,1,1.9,0l2.6,1.6a.59.59,0,0,1,0,1.1L143,150.1a2.12,2.12,0,0,1-1.9,0Z"/><path class="cls-3" d="M138.42,148.5a.59.59,0,0,1,0-1.1l30.4-17.8a2.12,2.12,0,0,1,1.9,0l2.6,1.5a.59.59,0,0,1,0,1.1L143,149.9a2.12,2.12,0,0,1-1.9,0Z"/><path class="cls-82" d="M137.52,148.5c-.6-.3-.6-.9,0-1.3l31.4-18.1a2.44,2.44,0,0,1,2.2,0l3,1.8c.6.4.6.9,0,1.3l-31.3,18a2.17,2.17,0,0,1-2.2,0Z"/><path class="cls-83" d="M137.52,148.2c-.6-.3-.6-.9,0-1.3l31.4-18.1a2.44,2.44,0,0,1,2.2,0l3,1.8c.6.4.6.9,0,1.3L142.82,150a2.17,2.17,0,0,1-2.2,0Z"/><polygon class="cls-3" points="138.62 146.3 140.62 147.4 141.12 147.2 139.12 146 138.62 146.3"/><polygon class="cls-3" points="141.12 144.9 142.42 145.7 142.92 145.4 141.52 144.6 141.12 144.9"/><polygon class="cls-3" points="143.52 143.4 144.92 144.2 145.32 144 144.02 143.2 143.52 143.4"/><polygon class="cls-3" points="146.02 142 147.32 142.8 147.82 142.6 146.42 141.8 146.02 142"/><polygon class="cls-3" points="148.42 140.6 150.42 141.8 150.92 141.5 148.92 140.3 148.42 140.6"/><polygon class="cls-3" points="150.92 139.2 152.22 140 152.72 139.7 151.32 138.9 150.92 139.2"/><polygon class="cls-3" points="153.32 137.8 154.72 138.6 155.12 138.3 153.82 137.5 153.32 137.8"/><polygon class="cls-3" points="155.72 136.4 157.12 137.2 157.62 136.9 156.22 136.1 155.72 136.4"/><polygon class="cls-3" points="158.22 134.9 160.22 136.1 160.72 135.9 158.72 134.7 158.22 134.9"/><polygon class="cls-3" points="160.62 133.5 162.02 134.3 162.52 134.1 161.12 133.3 160.62 133.5"/><polygon class="cls-3" points="163.12 132.1 164.52 132.9 164.92 132.6 163.62 131.8 163.12 132.1"/><polygon class="cls-3" points="165.52 130.7 166.92 131.5 167.32 131.2 166.02 130.4 165.52 130.7"/><polygon class="cls-3" points="168.02 129.3 170.02 130.4 170.42 130.2 168.42 129 168.02 129.3"/><polygon class="cls-84" points="151.32 112.6 166.22 121.2 165.52 122.5 151.32 114.3 149.92 112.8 151.32 112.6"/><polygon class="cls-9" points="151.32 112.6 151.32 114.3 149.92 112.8 151.32 112.6"/><polygon class="cls-3" points="150.32 112.7 149.92 112.8 150.32 113.1 150.32 112.7"/><path class="cls-82" d="M165.92,121.2a1.19,1.19,0,0,0-.5.9c0,.3.2.5.5.3a1.19,1.19,0,0,0,.5-.9C166.42,121.2,166.22,121,165.92,121.2Z"/><path class="cls-63" d="M165.92,121.2a1.19,1.19,0,0,0-.5.9c0,.3.2.5.5.3a1.19,1.19,0,0,0,.5-.9C166.42,121.2,166.22,121.1,165.92,121.2Z"/><path class="cls-3" d="M165.92,121.7c-.1,0-.1.2-.1.3a.1.1,0,0,0,.1.1,1,1,0,0,0,.1-.3C166,121.7,166,121.6,165.92,121.7Z"/></g></g></svg>