<svg xmlns="http://www.w3.org/2000/svg" xmlns:xlink="http://www.w3.org/1999/xlink" viewBox="0 0 20.7 32.06"><defs><style>.cls-1{fill:url(#Безымянный_градиент_19);}.cls-2{fill:#5c629e;}.cls-3{fill:#fff;}</style><linearGradient id="Безымянный_градиент_19" x1="0.86" y1="67.56" x2="20.68" y2="67.56" gradientTransform="matrix(1, 0, 0, -1, 0, 83.55)" gradientUnits="userSpaceOnUse"><stop offset="0" stop-color="#fff"/><stop offset="1" stop-color="#5c629e"/></linearGradient></defs><title>Ресурс 3</title><g id="Слой_2" data-name="Слой 2"><g id="Layer_1" data-name="Layer 1"><path class="cls-1" d="M1.4.37.9.77v17.5a6.41,6.41,0,0,0,2.9,5l15,8.7,1.2-.6a1.39,1.39,0,0,0,.7-1.2V13.47a6.41,6.41,0,0,0-2.9-5L3.3.17A1.85,1.85,0,0,0,1.4.37Z"/><path class="cls-2" d="M2.9.87C1.3,0,0,.77,0,2.57v16a6.41,6.41,0,0,0,2.9,5l14,8.1c1.6.9,2.9.2,2.9-1.7V13.77a6.41,6.41,0,0,0-2.9-5Z"/><path class="cls-3" d="M5.6,12.17V11l3.3,1.9v4c0,.7-.2,1.2-.6,1.3a2.24,2.24,0,0,1-1.5-.3,5.46,5.46,0,0,1-2-2l.7-.6a5.12,5.12,0,0,0,1.2,1.3,1.09,1.09,0,0,0,.5.1.85.85,0,0,0,.2-.6v-2.9Z"/><path class="cls-3" d="M11.8,15.77c-.1,0-.2.1-.2.3a1.42,1.42,0,0,0,.2.6,14.67,14.67,0,0,0,1.1,1,9.16,9.16,0,0,1,1.4,1.4,3,3,0,0,1,.5,1.5.92.92,0,0,1-.6,1,2.44,2.44,0,0,1-1.7-.4,8.29,8.29,0,0,1-2.7-2.6l.8-.5A5.61,5.61,0,0,0,12.5,20a3.93,3.93,0,0,0,.6.2c.1,0,.2-.1.2-.3a1.42,1.42,0,0,0-.2-.6l-.9-.9a8,8,0,0,1-1.6-1.6,3,3,0,0,1-.5-1.6c0-.6.2-.9.6-1a2.69,2.69,0,0,1,1.6.4,7.7,7.7,0,0,1,1.3.9,12,12,0,0,1,1.1,1.2l-.7.6a6.37,6.37,0,0,0-1.7-1.6C12.2,15.77,12,15.67,11.8,15.77Z"/></g></g></svg>