<svg xmlns="http://www.w3.org/2000/svg" xmlns:xlink="http://www.w3.org/1999/xlink" viewBox="0 0 21.1 32.68"><defs><style>.cls-1{fill:url(#Безымянный_градиент_15);}.cls-2{fill:url(#Безымянный_градиент_16);}.cls-3{fill:#fff;}</style><linearGradient id="Безымянный_градиент_15" x1="0.93" y1="122.88" x2="21.13" y2="122.88" gradientTransform="matrix(1, 0, 0, -1, 0, 139.18)" gradientUnits="userSpaceOnUse"><stop offset="0" stop-color="#fff"/><stop offset="1" stop-color="#ff9800"/></linearGradient><linearGradient id="Безымянный_градиент_16" x1="0.03" y1="122.58" x2="20.24" y2="122.58" gradientTransform="matrix(1, 0, 0, -1, 0, 139.18)" gradientUnits="userSpaceOnUse"><stop offset="0" stop-color="#ff9800"/><stop offset="1" stop-color="#ffc107"/></linearGradient></defs><title>Ресурс 2</title><g id="Слой_2" data-name="Слой 2"><g id="Layer_1" data-name="Layer 1"><path class="cls-1" d="M1.4.39.9.79v17.8a6.29,6.29,0,0,0,3,5.1l15.3,8.9,1.2-.6a1.21,1.21,0,0,0,.7-1.2v-17a6.29,6.29,0,0,0-3-5.1L3.4.29A1.66,1.66,0,0,0,1.4.39Z"/><path class="cls-2" d="M3,.89C1.4,0,0,.79,0,2.59v16.3A6.29,6.29,0,0,0,3,24l14.3,8.3c1.6.9,3,.2,3-1.7V14.09a6.29,6.29,0,0,0-3-5.1Z"/><path class="cls-3" d="M6.1,12.79a3.64,3.64,0,0,1,.5,2.1c0,.8-.2,1.2-.6,1.4a2.15,2.15,0,0,1-1.7-.5l-.7-.4v1.8l-1.2-.7.1-6.3,1.8,1.1A3.47,3.47,0,0,1,6.1,12.79Zm-.9,2a1,1,0,0,0,.2-.7,1.22,1.22,0,0,0-.3-.9,2.7,2.7,0,0,0-.8-.7l-.7-.4v2.1l.8.5C4.8,14.79,5.1,14.89,5.2,14.79Z"/><path class="cls-3" d="M10.8,14.89l1.2.7-.1,6.3-1.2-.7v-2.5l-2.1-1.2V20l-1.2-.7L7.5,13l1.2.7v2.6l2.1,1.2Z"/><path class="cls-3" d="M16.9,19a3.64,3.64,0,0,1,.5,2.1c0,.8-.2,1.2-.6,1.4a2.15,2.15,0,0,1-1.7-.5l-.7-.4v1.8l-1.2-.7.1-6.3,1.8,1.1A4.53,4.53,0,0,1,16.9,19ZM16,21a1,1,0,0,0,.2-.7,1.22,1.22,0,0,0-.3-.9,2.7,2.7,0,0,0-.8-.7l-.7-.4v2.1l.8.5C15.6,21.09,15.9,21.09,16,21Z"/></g></g></svg>