<svg xmlns="http://www.w3.org/2000/svg" xmlns:xlink="http://www.w3.org/1999/xlink" viewBox="0 0 22.8 35.34"><defs><style>.cls-1{fill:url(#Безымянный_градиент_13);}.cls-2{fill:#f9f7f9;}.cls-3{fill:#99a7d8;opacity:0.47;isolation:isolate;}.cls-4{fill:#48486a;}.cls-5{fill:#5c629e;}</style><linearGradient id="Безымянный_градиент_13" x1="1.63" y1="157.28" x2="22.48" y2="123.32" gradientTransform="matrix(1, 0, 0, -1, 0, 158.01)" gradientUnits="userSpaceOnUse"><stop offset="0.01" stop-color="#eff1f8"/><stop offset="0.18" stop-color="#dbe0f1"/><stop offset="0.53" stop-color="#b7c1e3"/><stop offset="0.82" stop-color="#a1aedb"/><stop offset="1" stop-color="#99a7d8"/></linearGradient></defs><title>Ресурс 9</title><g id="Слой_2" data-name="Слой 2"><g id="Layer_1" data-name="Layer 1"><path class="cls-1" d="M1.6.4,1,.8V20.1a6.94,6.94,0,0,0,3.2,5.5l16.5,9.6,1.3-.6a1.34,1.34,0,0,0,.8-1.3V14.8a6.94,6.94,0,0,0-3.2-5.5L3.7.2A2,2,0,0,0,1.6.4Z"/><path class="cls-2" d="M3.2,1C1.4,0,0,.8,0,2.9V20.5A6.94,6.94,0,0,0,3.2,26l15.4,8.9c1.8,1,3.2.2,3.2-1.8V15.2a6.94,6.94,0,0,0-3.2-5.5Z"/><path class="cls-3" d="M16.9,18.7l1-.5c.2-.1.2-.5,0-.8L16.8,15c-.2-.4-.5-.6-.7-.5l-.8.5c-.1.1-.3,0-.5-.2l-.3-.3a.86.86,0,0,1-.3-.6l.1-1.3a1.19,1.19,0,0,0-.5-.9l-1.7-1.1c-.3-.2-.5-.1-.5.3L11.5,12a.27.27,0,0,1-.3.3h-.3c-.2,0-.3-.2-.4-.4l-.7-1.4c-.2-.4-.5-.6-.7-.5l-1.3.7c-.2.1-.2.5,0,.8l.7,1.4a1.49,1.49,0,0,1,.1.6.37.37,0,0,0-.1.3c-.1.2-.2.2-.4.1L7,13.2c-.3-.2-.5-.1-.5.3l-.1,2.1a1.19,1.19,0,0,0,.5.9l1.1.7a.92.92,0,0,1,.4.6c0,.2.1.3.1.5a.44.44,0,0,1-.1.5l-1,.2c-.2.1-.2.5,0,.8l1.2,2.3c.2.4.5.6.7.5l.8-.4c.1-.1.3,0,.5.2l.3.3a.86.86,0,0,1,.3.6L11,24.6a1.19,1.19,0,0,0,.5.9l1.7,1.1c.3.2.5.1.5-.3l.1-1.3a.27.27,0,0,1,.3-.3h.3c.2,0,.3.2.4.4l.7,1.4c.2.4.5.6.7.5l1.3-.7c.2-.1.2-.5,0-.8l-.7-1.4a1.49,1.49,0,0,1-.1-.6c0-.1.1-.2.1-.3s.2-.2.4-.1l1.1.7c.3.2.5.1.5-.3l.1-2.1a1.19,1.19,0,0,0-.5-.9l-1.1-.7a.92.92,0,0,1-.4-.6C17,19.1,16.9,18.7,16.9,18.7Zm-6.3.2c-.8-2.1-.2-3.8,1.2-3.7,1.1.1,2.4,1.4,3,3,.8,2.1.2,3.8-1.2,3.7C12.5,21.8,11.2,20.5,10.6,18.9Z"/><path class="cls-4" d="M14.9,21.5l-1.1-.7a.92.92,0,0,1-.4-.6,8.14,8.14,0,0,1-.2-.9l1-.5c.2-.1.2-.5,0-.8L13,15.7a1.21,1.21,0,0,0-.5-.5H11.2v.3c-.1,0-.1-.1-.2-.1l-.3-.3a.86.86,0,0,1-.3-.6l.1-1.3a1.19,1.19,0,0,0-.5-.9L8.3,11.2a.31.31,0,0,0-.2-.1H6.7v1.5l1.1.1v.1a.27.27,0,0,1-.3.3H7.2c-.2,0-.3-.2-.4-.4l-.7-1.4a.74.74,0,0,0-.6-.5H4.2v.6H4.1c-.2.1-.2.5,0,.8l.7,1.4a1.49,1.49,0,0,1,.1.6.37.37,0,0,0-.1.3c-.1.2-.2.2-.4.1l-1.1-.7a.37.37,0,0,0-.3-.1H1.7v1.6h1v.8a1.19,1.19,0,0,0,.5.9l1.1.7a.92.92,0,0,1,.4.6c0,.2.1.3.1.5a.44.44,0,0,1-.1.5l-.8.4c-.2.1-.2.5,0,.8l2.6,2.3c.1-.1.3,0,.5.2l.3.3a.86.86,0,0,1,.3.6l-.1,1.3a1.19,1.19,0,0,0,.5.9l.7.5v.8H10c.1,0,.2-.1.2-.3l.1-1.3a.27.27,0,0,1,.3-.3h.3c.2,0,.3.2.4.4l.4.7h-.5V28h1.6l1.3-.7c.2-.1.2-.5,0-.8l-.7-1.4a1.49,1.49,0,0,1-.1-.6c0-.1.1-.2.1-.3s.2-.2.4-.1h0v.8h1.3c.1,0,.2-.1.2-.3l.1-2.1A1.23,1.23,0,0,0,14.9,21.5Zm-5,1.2c-1.1-.1-2.4-1.4-3-3-.8-2.1-.2-3.8,1.2-3.7,1.1.1,2.4,1.4,3,3C12,21.1,11.4,22.9,9.9,22.7Z"/><path class="cls-5" d="M12,19.4l1-.5c.2-.1.2-.5,0-.8l-1.2-2.3c-.2-.4-.5-.6-.7-.5l-.8.4c-.1.1-.3,0-.5-.2l-.3-.3a.86.86,0,0,1-.3-.6l.1-1.3a1.19,1.19,0,0,0-.5-.9L7.1,11.3c-.3-.2-.5-.1-.5.3l-.1,1.3a.27.27,0,0,1-.3.3H5.9c-.2,0-.3-.2-.4-.4l-.7-1.4c-.2-.4-.5-.6-.7-.5l-1.3.7c-.2.1-.2.5,0,.8l.7,1.4a1.49,1.49,0,0,1,.1.6.37.37,0,0,0-.1.3c-.1.2-.2.2-.4.1L2,13.9c-.3-.2-.5-.1-.5.3l-.1,2.1a1.19,1.19,0,0,0,.5.9l1.1.7a.92.92,0,0,1,.4.6c0,.2.1.3.1.5a.44.44,0,0,1-.1.5l-.8.4c-.2.1-.2.5,0,.8L3.8,23c.2.4.5.6.7.5l.8-.4c.1-.1.3,0,.5.2l.3.3a.86.86,0,0,1,.3.6l-.1,1.3a1.19,1.19,0,0,0,.5.9l1.7,1.1c.3.2.5.1.5-.3l.1-1.3a.27.27,0,0,1,.3-.3h.3c.2,0,.3.2.4.4l.7,1.4c.2.4.5.6.7.5l1.3-.7c.2-.1.2-.5,0-.8L12.1,25a1.49,1.49,0,0,1-.1-.6c0-.1.1-.2.1-.3s.2-.2.4-.1l1.1.7c.3.2.5.1.5-.3l.1-2.1a1.19,1.19,0,0,0-.5-.9l-1.1-.7a.92.92,0,0,1-.4-.6A2.54,2.54,0,0,1,12,19.4Zm-6.4.3c-.8-2.1-.2-3.8,1.2-3.7,1.1.1,2.4,1.4,3,3,.8,2.1.2,3.8-1.2,3.7A4.67,4.67,0,0,1,5.6,19.7Z"/></g></g></svg>