<svg xmlns="http://www.w3.org/2000/svg" xmlns:xlink="http://www.w3.org/1999/xlink" viewBox="0 0 20.7 32.1"><defs><style>.cls-1{fill:url(#Безымянный_градиент_20);}.cls-2{fill:#f7f7f7;}.cls-3{fill:#5c629e;}</style><linearGradient id="Безымянный_градиент_20" x1="0.84" y1="240.02" x2="20.66" y2="240.02" gradientTransform="matrix(1, 0, 0, -1, 0, 256.03)" gradientUnits="userSpaceOnUse"><stop offset="0.01" stop-color="#eff1f8"/><stop offset="0.18" stop-color="#dbe0f1"/><stop offset="0.53" stop-color="#b7c1e3"/><stop offset="0.82" stop-color="#a1aedb"/><stop offset="1" stop-color="#99a7d8"/></linearGradient></defs><title>Ресурс 12</title><g id="Слой_2" data-name="Слой 2"><g id="Layer_1" data-name="Layer 1"><path class="cls-1" d="M1.3.31.8.71v17.5a6.41,6.41,0,0,0,2.9,5L18.8,32l1.2-.6a1.39,1.39,0,0,0,.7-1.2V13.51a6.41,6.41,0,0,0-2.9-5L3.3.21A2,2,0,0,0,1.3.31Z"/><path class="cls-2" d="M2.9.91C1.3,0,0,.81,0,2.61v16a6.41,6.41,0,0,0,2.9,5l14,8.1c1.6.9,2.9.2,2.9-1.7V13.81a6.41,6.41,0,0,0-2.9-5Z"/><path class="cls-3" d="M4.3,11.41c-.1,0-.2.1-.2.3s.1.3.2.5a3.61,3.61,0,0,0,.9.9,6,6,0,0,1,1.1,1.2,2.3,2.3,0,0,1,.4,1.4,1.1,1.1,0,0,1-.5,1,1.74,1.74,0,0,1-1.3-.3,5.59,5.59,0,0,1-2.1-2.2l.7-.6a5.2,5.2,0,0,0,1.4,1.7c.2.1.4.2.5.1s.2-.1.2-.3-.1-.3-.2-.5a4.51,4.51,0,0,0-.7-.7,3.75,3.75,0,0,1-1.2-1.4,2.3,2.3,0,0,1-.4-1.4c0-.6.2-.9.5-1a1.74,1.74,0,0,1,1.3.3,3.51,3.51,0,0,1,1,.8,4.44,4.44,0,0,1,.8,1.1l-.6.6a4,4,0,0,0-1.3-1.3A.65.65,0,0,0,4.3,11.41Z"/><path class="cls-3" d="M7.6,18l.1-5.8,1.1.6-.1,4.6,2.1,1.2v1.2Z"/><path class="cls-3" d="M16.5,20.21a2,2,0,0,1-.4,1.4A1.5,1.5,0,0,1,15,22c0,.1.1.2.2.3l.3.3a.37.37,0,0,0,.3.1H16c.1,0,.2-.1.3-.2l.6,1.1c-.4.3-.9.2-1.5-.1a2,2,0,0,1-.8-.8,2.38,2.38,0,0,1-.6-1.1,5.5,5.5,0,0,1-1.8-1.9,5.09,5.09,0,0,1-.7-2.6,1.77,1.77,0,0,1,.8-1.7,1.73,1.73,0,0,1,1.8.2,5.5,5.5,0,0,1,1.8,1.9A8.76,8.76,0,0,1,16.5,20.21Zm-1.2-.7a3.43,3.43,0,0,0-.4-1.6,2.71,2.71,0,0,0-1-1.1c-.4-.2-.8-.3-1-.1a1.25,1.25,0,0,0-.4,1.1,3.43,3.43,0,0,0,.4,1.6,2.71,2.71,0,0,0,1,1.1c.4.2.8.3,1,.1A1.25,1.25,0,0,0,15.3,19.51Z"/></g></g></svg>